<?xml version="1.0" encoding="UTF-8"?>
<svg width="88px" height="88px" viewBox="0 0 88 88" version="1.1" xmlns="http://www.w3.org/2000/svg" xmlns:xlink="http://www.w3.org/1999/xlink">
    <title>4802A4B6-EDBE-4124-A437-09AE9EBCEDA6</title>
    <defs>
        <filter id="filter-1">
            <feColorMatrix in="SourceGraphic" type="matrix" values="0 0 0 0 0.160784 0 0 0 0 0.662745 0 0 0 0 0.874510 0 0 0 1.000000 0"></feColorMatrix>
        </filter>
    </defs>
    <g id="desktop-" stroke="none" stroke-width="1" fill="none" fill-rule="evenodd">
        <g id="package" transform="translate(-580.000000, -358.000000)">
            <g id="Group-16" transform="translate(130.000000, 358.000000)">
                <g id="Group-11" transform="translate(329.000000, 0.000000)">
                    <g id="Group-3" transform="translate(121.000000, 0.000000)">
                        <g id="Group-4">
                            <circle id="Oval-Copy" stroke="#D7DBE5" fill="#FFFFFF" cx="44" cy="44" r="43.5"></circle>
                            <g filter="url(#filter-1)" id="Group-7">
                                <g transform="translate(9.000000, 9.000000)">
                                    <path d="M35.13546,62.27568 C34.61796,62.27568 34.19946,62.69418 34.19946,63.21168 C34.19946,63.72828 34.61796,64.14768 35.13546,64.14768 C35.65206,64.14768 36.07146,63.72828 36.07146,63.21168 C36.06966,62.69508 35.65116,62.27658 35.13546,62.27568 L35.13546,62.27568 Z M24.41466,60.13728 C24.02766,60.12738 23.67576,60.35508 23.52636,60.71148 C23.43276,60.94278 23.43276,61.20018 23.52636,61.43148 C23.72346,61.90938 24.27156,62.13708 24.75036,61.93908 C25.22826,61.74108 25.45506,61.19298 25.25706,60.71508 C25.16256,60.48468 24.97896,60.30108 24.74766,60.20658 C24.64146,60.16248 24.52716,60.13998 24.41196,60.13998 L24.41466,60.13728 Z M45.89046,60.13728 C45.76626,60.13638 45.64116,60.16068 45.52596,60.21018 C45.05076,60.40998 44.82756,60.95718 45.02646,61.43238 C45.22626,61.90758 45.77346,62.13078 46.24956,61.93098 C46.72386,61.73118 46.94706,61.18398 46.74726,60.70878 C46.60236,60.36318 46.26486,60.13818 45.89046,60.13728 L45.89046,60.13728 Z M35.13816,57.59658 C34.62156,57.59658 34.20216,58.01598 34.20216,58.53258 C34.20216,59.04918 34.62156,59.46858 35.13816,59.46858 C35.65476,59.46858 36.07416,59.04918 36.07416,58.53258 C36.07326,58.01418 35.65296,57.59478 35.13546,57.5956786 L35.13816,57.59658 Z M39.70836,57.14658 C39.64536,57.14658 39.58326,57.15288 39.52206,57.16458 C39.01626,57.26538 38.68416,57.75498 38.78046,58.26168 C38.82906,58.50468 38.97306,58.71888 39.17826,58.85748 C39.61026,59.14458 40.19256,59.02668 40.47876,58.59558 C40.61466,58.39038 40.66506,58.14108 40.61916,57.89988 C40.53096,57.46338 40.14936,57.14838 39.70566,57.14568 L39.70836,57.14658 Z M30.60036,57.14658 C30.14406,57.13578 29.74536,57.45258 29.65266,57.89988 C29.56806,58.41108 29.91366,58.89348 30.42486,58.97808 C30.91356,59.05908 31.37976,58.74768 31.49136,58.26528 C31.53906,58.02138 31.48956,57.77028 31.35366,57.56328 C31.21506,57.35538 30.99906,57.21228 30.75426,57.16458 C30.70206,57.15288 30.65076,57.14658 30.59766,57.14568 L30.60036,57.14658 Z M44.10036,55.81188 C43.58286,55.80468 43.15716,56.21778 43.14996,56.73528 C43.14186,57.25278 43.55586,57.67848 44.07426,57.68478 C44.20296,57.68748 44.33166,57.66228 44.45136,57.61188 C44.92746,57.40848 45.14886,56.85678 44.94456,56.38068 C44.79966,56.04138 44.46936,55.81908 44.10036,55.81188 L44.10036,55.81188 Z M26.19846,55.81188 C25.67826,55.79838 25.24626,56.20968 25.23276,56.72988 C25.21926,57.25008 25.63056,57.68208 26.15166,57.69558 C26.67186,57.70908 27.10386,57.29778 27.11736,56.77758 C27.12726,56.38878 26.89776,56.03418 26.53866,55.88478 C26.43066,55.83978 26.31546,55.81458 26.19846,55.81098 L26.19846,55.81188 Z M54.99846,54.05328 C54.48276,54.04968 54.06156,54.46548 54.05796,54.98118 C54.05436,55.49688 54.47016,55.91808 54.98676,55.92168 C55.50246,55.92528 55.92366,55.50948 55.92726,54.99378 C55.92906,54.74178 55.82826,54.49968 55.65006,54.32328 C55.47816,54.15228 55.24596,54.05418 55.00296,54.05238 L54.99846,54.05328 Z M15.28776,54.05328 C15.03486,54.04608 14.79096,54.14418 14.61096,54.32328 C14.24556,54.68868 14.24466,55.28178 14.61006,55.64808 C14.97636,56.01438 15.56946,56.01438 15.93576,55.64898 C16.30116,55.28358 16.30206,54.69048 15.93666,54.32418 C15.93576,54.32418 15.93576,54.32328 15.93576,54.32328 C15.76476,54.15318 15.53436,54.05598 15.29316,54.05238 L15.28776,54.05328 Z M61.09866,44.94168 C60.58026,44.93448 60.15546,45.34938 60.14826,45.86778 C60.14376,46.24668 60.36876,46.59228 60.71796,46.74168 C60.94926,46.83438 61.20666,46.83438 61.43796,46.74168 C61.91586,46.54278 62.14176,45.99378 61.94196,45.51588 C61.84746,45.28818 61.66656,45.10638 61.43796,45.01188 C61.32906,44.96778 61.21476,44.94438 61.09866,44.94168 L61.09866,44.94168 Z M9.20196,44.94168 C9.07596,44.93988 8.95176,44.96508 8.83566,45.01458 C8.36406,45.21348 8.14176,45.75798 8.34156,46.23138 C8.54046,46.70388 9.08496,46.92528 9.55746,46.72638 C10.02996,46.52658 10.25226,45.98208 10.05336,45.50958 C9.90846,45.16668 9.57366,44.94348 9.20196,44.94168 L9.20196,44.94168 Z M58.10706,38.75868 C57.59316,38.74788 57.16746,39.15648 57.15666,39.67038 C57.14586,40.18518 57.55446,40.60998 58.06836,40.62078 C58.58316,40.63158 59.00796,40.22388 59.01966,39.70908 C59.02326,39.52008 58.96926,39.33288 58.86396,39.17538 C58.72536,38.96928 58.51206,38.82618 58.26906,38.77668 C58.21686,38.76678 58.16376,38.76138 58.11066,38.75868 L58.10706,38.75868 Z M12.18546,38.75868 C12.12336,38.75958 12.06036,38.76498 11.99916,38.77668 C11.49336,38.87748 11.16486,39.36888 11.26656,39.87378 C11.36736,40.37958 11.85876,40.70808 12.36366,40.60728 C12.86946,40.50648 13.19706,40.01508 13.09716,39.50928 C13.00986,39.07458 12.62826,38.76048 12.18546,38.75868 L12.18546,38.75868 Z M63.21456,34.19568 C62.69796,34.19568 62.27856,34.61508 62.27856,35.13168 C62.27856,35.64828 62.69796,36.06768 63.21456,36.06768 C63.73206,36.06768 64.15056,35.64828 64.15056,35.13168 C64.14966,34.61508 63.73116,34.19658 63.21456,34.19568 L63.21456,34.19568 Z M58.53546,34.19568 C58.01796,34.19568 57.59946,34.61508 57.59946,35.13168 C57.59946,35.64828 58.01796,36.06768 58.53546,36.06768 C59.05206,36.06768 59.47146,35.64828 59.47146,35.13168 C59.46966,34.61508 59.05116,34.19658 58.53546,34.19568 L58.53546,34.19568 Z M11.73546,34.19568 C11.21796,34.19568 10.79946,34.61508 10.79946,35.13168 C10.79946,35.64828 11.21796,36.06768 11.73546,36.06768 C12.25206,36.06768 12.67146,35.64828 12.67146,35.13168 C12.66966,34.61508 12.25116,34.19658 11.73546,34.19568 L11.73546,34.19568 Z M7.05546,34.19568 C6.53886,34.19568 6.11946,34.61508 6.11946,35.13168 C6.11946,35.64828 6.53886,36.06768 7.05546,36.06768 C7.57206,36.06768 7.99146,35.64828 7.99146,35.13168 C7.99056,34.61508 7.57206,34.19658 7.05546,34.19568 L7.05546,34.19568 Z M58.09356,29.63268 C58.03056,29.62998 57.96846,29.63448 57.90726,29.64708 C57.38976,29.73888 57.04506,30.23208 57.13596,30.74958 C57.22776,31.26708 57.72186,31.61178 58.23936,31.51998 C58.75596,31.42908 59.10156,30.93498 59.00976,30.41748 C58.92966,29.97018 58.54716,29.64258 58.09356,29.63268 L58.09356,29.63268 Z M12.20616,29.63268 C11.69856,29.63178 11.2863585,30.04308 11.2863585,30.55068 C11.28546,31.05918 11.69676,31.47138 12.20436,31.47228 C12.71286,31.47228 13.12506,31.06098 13.12596,30.55338 C13.12596,30.10698 12.80646,29.72538 12.36816,29.64708 C12.31506,29.63628 12.26106,29.63178 12.20616,29.63268 L12.20616,29.63268 Z M13.53996,25.23978 C13.02426,25.22988 12.59946,25.64028 12.58956,26.15598 C12.58056,26.67168 12.99096,27.09648 13.50666,27.10548 C14.02146,27.11538 14.44716,26.70498 14.45526,26.18928 C14.46246,25.80498 14.23206,25.45488 13.87656,25.30908 C13.76766,25.26588 13.65246,25.24338 13.53546,25.24158 L13.53996,25.23978 Z M56.76336,25.23978 C56.63916,25.23708 56.51406,25.26048 56.39886,25.30908 C55.91736,25.50528 55.68606,26.05338 55.88226,26.53488 C56.07846,27.01548 56.62656,27.24678 57.10716,27.05148 C57.58866,26.85528 57.81996,26.30718 57.62376,25.82568 C57.48156,25.47468 57.14226,25.24428 56.76336,25.23978 L56.76336,25.23978 Z M61.08426,23.44428 C60.95826,23.44428 60.83496,23.46948 60.71886,23.51718 C60.24366,23.71698 60.02136,24.26238 60.22116,24.73668 C60.42096,25.21098 60.96636,25.43328 61.44156,25.23438 C61.91496,25.03458 62.13816,24.48828 61.93836,24.01398 C61.79346,23.67018 61.45686,23.44518 61.08426,23.44428 L61.08426,23.44428 Z M9.21186,23.44428 C8.69346,23.43078 8.26326,23.84118 8.24976,24.36048 C8.23626,24.87888 8.64666,25.30998 9.16596,25.32258 C9.68436,25.33608 10.11546,24.92568 10.12896,24.40638 C10.13796,24.02028 9.90936,23.66658 9.55206,23.51718 C9.44496,23.47398 9.33066,23.44968 9.21456,23.44608 L9.21186,23.44428 Z M15.69816,21.19428 C15.17886,21.17988 14.74596,21.58938 14.73156,22.10958 C14.71716,22.62888 15.12756,23.06178 15.64686,23.07618 C16.16706,23.09058 16.59906,22.68108 16.61436,22.16088 C16.62336,21.83958 16.46676,21.53538 16.20036,21.35538 C16.05096,21.25278 15.87636,21.19698 15.69456,21.19428 L15.69816,21.19428 Z M54.60156,21.19428 C54.41256,21.19068 54.22716,21.24558 54.07146,21.35178 C53.63766,21.63978 53.51976,22.22568 53.80686,22.65858 C54.09486,23.09328 54.68076,23.21118 55.11456,22.92318 C55.54926,22.63518 55.66626,22.04928 55.37826,21.61548 C55.20546,21.35448 54.91476,21.19698 54.60156,21.19428 L54.60156,21.19428 Z M51.69366,17.65098 C51.17796,17.64738 50.75676,18.06318 50.75406,18.57888 C50.75046,19.09458 51.16626,19.51578 51.68196,19.51938 C52.19766,19.52298 52.61886,19.10718 52.62246,18.59148 C52.62426,18.33948 52.52346,18.09828 52.34526,17.92098 C52.17246,17.74908 51.93846,17.65188 51.69456,17.65098 L51.69366,17.65098 Z M18.60156,17.65098 C18.34866,17.64378 18.10296,17.74188 17.92476,17.92098 C17.55846,18.28728 17.55846,18.88038 17.92386,19.24668 C18.09936,19.42308 18.33786,19.5220814 18.58536,19.5220814 C19.10466,19.52298 19.52406,19.10448 19.52586,18.58608 C19.52586,18.33678 19.42776,18.09738 19.25136,17.92098 C19.07856,17.74908 18.84456,17.65188 18.60156,17.65098 L18.60156,17.65098 Z M22.14756,14.74038 C21.63186,14.73408 21.20886,15.14718 21.20346,15.66288 C21.19716,16.17858 21.61026,16.60248 22.12596,16.60878 C22.64166,16.61508 23.06466,16.20198 23.07096,15.68538 C23.07366,15.49638 23.01786,15.31008 22.91256,15.15348 C22.74156,14.89698 22.45536,14.74308 22.14756,14.74038 L22.14756,14.74038 Z M48.15216,14.74038 C47.83266,14.73318 47.53296,14.89068 47.35836,15.15708 C47.07306,15.58638 47.19006,16.16688 47.61936,16.45218 C48.04866,16.73748 48.62826,16.62048 48.91446,16.19118 C49.19886,15.76188 49.08366,15.18408 48.65526,14.89788 C48.50586,14.79798 48.33126,14.74218 48.15216,14.73678 L48.15216,14.74038 Z M55.00296,14.34168 C54.75186,14.33988 54.50796,14.43708 54.32616,14.61168 C53.95716,14.97528 53.95266,15.57018 54.31626,15.94008 C54.68076,16.30998 55.27566,16.31448 55.64556,15.94998 C56.01456,15.58638 56.01996,14.99148 55.65546,14.62158 C55.48266,14.44608 55.24956,14.34618 55.00296,14.34168 L55.00296,14.34168 Z M15.29316,14.34168 C15.04116,14.33988 14.79726,14.43708 14.61546,14.61168 C14.24646,14.97528 14.24196,15.57018 14.60556,15.94008 C14.97006,16.30998 15.56496,16.31448 15.93486,15.94998 C16.30386,15.58638 16.30926,14.99148 15.94476,14.62158 C15.77196,14.44608 15.53886,14.34618 15.29316,14.34168 L15.29316,14.34168 Z M44.11116,12.57588 C43.59276,12.56148 43.16256,12.96918 43.14906,13.48668 C43.13556,14.00418 43.54326,14.43438 44.05986,14.44878 C44.44866,14.45958 44.80326,14.22918 44.95086,13.87008 C45.15066,13.39758 44.93016,12.85218 44.45676,12.65328 C44.45406,12.65148 44.45046,12.64968 44.44686,12.64878 C44.34066,12.60288 44.22636,12.57858 44.11116,12.57588 L44.11116,12.57588 Z M26.18856,12.57588 C26.06256,12.57408 25.93836,12.59928 25.82226,12.64878 C25.34526,12.84768 25.11936,13.39578 25.31826,13.87368 C25.51626,14.35068 26.06526,14.57748 26.54316,14.37858 C27.01926,14.17698 27.24246,13.62798 27.04176,13.15098 C26.89776,12.80808 26.56386,12.58398 26.19126,12.57858 L26.18856,12.57588 Z M39.72366,11.24568 C39.20436,11.23308 38.77416,11.64258 38.76156,12.16008 C38.74896,12.67938 39.15846,13.10958 39.67686,13.12218 C40.19526,13.13478 40.62636,12.72528 40.63806,12.20688 C40.64976,11.75148 40.33116,11.35278 39.88386,11.26368 C39.83256,11.25198 39.77856,11.24568 39.72546,11.24478 L39.72366,11.24568 Z M30.57246,11.24568 C30.50946,11.24568 30.44736,11.25198 30.38616,11.26368 C29.87676,11.36448 29.54736,11.85858 29.64816,12.36708 C29.74986,12.87558 30.24306,13.20588 30.75156,13.10508 C31.26006,13.00338 31.59126,12.51018 31.48956,12.00168 C31.40316,11.56338 31.01886,11.24748 30.57246,11.24568 L30.57246,11.24568 Z M35.13546,10.79568 C34.61796,10.79568 34.19946,11.21508 34.19946,11.73168 C34.19946,12.24828 34.61796,12.66768 35.13546,12.66768 C35.65206,12.66768 36.07146,12.24828 36.07146,11.73168 C36.06966,11.21508 35.65116,10.79658 35.13546,10.79568 L35.13546,10.79568 Z M45.90666,8.25048 C45.38556,8.23518 44.95086,8.64468 44.93556,9.16488 C44.92026,9.68598 45.32976,10.12068 45.84996,10.13598 C46.37106,10.15128 46.80576,9.74178 46.82106,9.22068 C46.83276,8.83098 46.60236,8.47368 46.24326,8.32338 C46.13526,8.27838 46.02006,8.25408 45.90306,8.25048 L45.90666,8.25048 Z M24.39576,8.25048 C24.27156,8.25138 24.14646,8.27568 24.03126,8.32338 C23.55966,8.52228 23.33826,9.06588 23.53716,9.53748 C23.73606,10.00908 24.27966,10.23048 24.75216,10.03158 C25.22286,9.83178 25.44426,9.28818 25.24536,8.81748 C25.10136,8.47548 24.76656,8.25228 24.39576,8.25048 L24.39576,8.25048 Z M35.13546,6.11568 C34.61796,6.11568 34.19946,6.53418 34.19946,7.05168 C34.19946,7.56828 34.61796,7.98768 35.13546,7.98768 C35.65206,7.98768 36.07146,7.56828 36.07146,7.05168 C36.06966,6.53508 35.65116,6.11658 35.13546,6.11568 L35.13546,6.11568 Z" id="Fill-1" fill="#00A0DE"></path>
                                    <path d="M49.05549,43.07337 C48.89079,43.39557 49.01949,43.78977 49.34169,43.95447 C49.66479,44.11917 50.05899,43.99047 50.22369,43.66827 C50.38749,43.34607 50.25969,42.95097 49.93659,42.78717 C49.61349,42.62337 49.21839,42.75297 49.05369,43.07607 L49.05369,43.07697 L49.05549,43.07337 Z M50.22819,40.07817 C50.20839,40.11777 50.19309,40.15827 50.17959,40.20057 C50.08239,40.54887 50.28399,40.91157 50.63139,41.01147 C50.79879,41.05827 50.97879,41.03667 51.13089,40.95297 C51.44589,40.77567 51.55929,40.37607 51.38289,40.05927 C51.29829,39.90807 51.15699,39.79647 50.99049,39.74967 C50.68899,39.66327 50.36859,39.80277 50.22639,40.08267 L50.22819,40.07817 Z M47.33289,45.76077 C47.18079,46.04157 47.25189,46.39167 47.50119,46.59147 C47.78649,46.81557 48.19959,46.76697 48.42369,46.48167 C48.64779,46.19727 48.59829,45.78417 48.31389,45.56007 C48.17709,45.45297 48.00429,45.40437 47.83239,45.42327 C47.65779,45.44397 47.49939,45.53307 47.39229,45.67077 C47.36889,45.69957 47.34819,45.73197 47.33019,45.76527 L47.33289,45.76077 Z M50.79069,36.91647 C50.62059,37.23687 50.74299,37.63467 51.06249,37.80387 C51.38289,37.97307 51.77979,37.85157 51.94989,37.53117 C51.99309,37.45017 52.01829,37.36107 52.02459,37.27017 C52.04799,36.90747 51.77349,36.59517 51.41079,36.57267 C51.15429,36.55647 50.91219,36.69057 50.79069,36.91647 L50.79069,36.91647 Z M45.09999,48.08457 C44.92629,48.40497 45.04509,48.80547 45.36459,48.97917 C45.68589,49.15287 46.08549,49.03497 46.26009,48.71457 C46.43379,48.39417 46.31499,47.99367 45.99459,47.81907 C45.75519,47.68947 45.46179,47.72007 45.25389,47.89557 C45.19179,47.94867 45.13959,48.01347 45.09999,48.08457 L45.09999,48.08457 Z M49.52979,28.00287 C49.44609,28.15857 49.42899,28.34217 49.48479,28.51047 C49.59639,28.85517 49.96539,29.04417 50.31099,28.93257 C50.65479,28.82097 50.84379,28.45107 50.73219,28.10637 C50.62059,27.76167 50.25069,27.57267 49.90599,27.68427 C49.90509,27.68427 49.90509,27.68427 49.90419,27.68427 C49.74489,27.73737 49.60989,27.85077 49.53159,28.00017 L49.52979,28.00287 Z M50.28489,30.97017 C50.24439,31.04847 50.22099,31.13397 50.21469,31.22127 C50.18949,31.57947 50.45949,31.89177 50.81769,31.91697 C51.17499,31.94217 51.48729,31.67307 51.51249,31.31487 C51.53859,30.95577 51.26859,30.64437 50.91039,30.61917 C50.65029,30.60027 50.40459,30.73887 50.28489,30.97017 L50.28489,30.97017 Z M44.60589,22.75497 C44.43489,23.07267 44.55459,23.46867 44.87229,23.63877 C45.18999,23.80887 45.58599,23.68917 45.75609,23.37147 C45.92529,23.05377 45.80649,22.65867 45.48879,22.48857 C45.37179,22.42557 45.23859,22.40037 45.10539,22.41477 C44.93349,22.43637 44.77599,22.52457 44.66799,22.66047 C44.64549,22.69107 44.62389,22.72257 44.60589,22.75497 L44.60589,22.75497 Z M30.00699,51.40557 C29.98719,51.44427 29.97189,51.48567 29.95839,51.52797 C29.86119,51.87447 30.06279,52.23537 30.41109,52.33347 C30.75849,52.43157 31.11849,52.22907 31.21749,51.88167 C31.31469,51.53427 31.11219,51.17337 30.76569,51.07617 C30.46599,50.99157 30.14919,51.12927 30.00699,51.40557 L30.00699,51.40557 Z M41.89329,21.04047 C41.72859,21.36267 41.85729,21.75687 42.17949,21.92157 C42.50259,22.08537 42.89679,21.95757 43.06149,21.63537 C43.22529,21.31227 43.09749,20.91807 42.77439,20.75337 C42.45309,20.59137 42.06069,20.71827 41.89419,21.03867 L41.89329,21.04047 Z M27.01719,50.23737 C26.85249,50.55957 26.98029,50.95377 27.30249,51.11847 C27.62469,51.28317 28.01979,51.15447 28.18449,50.83227 C28.34829,50.51007 28.22049,50.11497 27.89739,49.95117 C27.57519,49.78737 27.18099,49.91607 27.01719,50.23737 L27.01719,50.23737 Z M50.91039,33.79347 C50.74569,34.11657 50.87439,34.51077 51.19659,34.67457 C51.51879,34.83927 51.91389,34.71147 52.07769,34.38927 C52.24239,34.06617 52.11369,33.67197 51.79149,33.50817 C51.46929,33.34437 51.07509,33.47217 50.91039,33.79347 L50.91039,33.79347 Z M38.90799,19.86417 C38.88639,19.90197 38.86929,19.94247 38.85759,19.98477 C38.74959,20.33667 38.94849,20.70927 39.29949,20.81727 C39.65139,20.92437 40.02399,20.72637 40.13109,20.37447 C40.23909,20.02347 40.04109,19.65087 39.68919,19.54287 C39.38589,19.45017 39.05919,19.58427 38.90799,19.86417 L38.90799,19.86417 Z M24.32169,48.49227 C24.15969,48.80907 24.28569,49.19607 24.60249,49.35717 C24.91929,49.51917 25.30629,49.39227 25.46739,49.07637 C25.62939,48.75957 25.50339,48.37167 25.18659,48.21057 C24.90849,48.06927 24.56919,48.14757 24.38109,48.39687 C24.35769,48.42567 24.33609,48.45807 24.31989,48.49227 L24.32169,48.49227 Z M22.00419,46.26657 C21.83499,46.58427 21.95559,46.98027 22.27419,47.15037 C22.59279,47.31957 22.98789,47.19897 23.15799,46.88037 C23.32719,46.56177 23.20659,46.16667 22.88889,45.99657 C22.65039,45.86967 22.35879,45.90207 22.15449,46.07847 C22.09329,46.13157 22.04199,46.19547 22.00419,46.26657 Z M35.74539,19.29987 C35.70309,19.37727 35.67879,19.46277 35.67249,19.55007 C35.64189,19.91277 35.91099,20.23137 36.27279,20.26197 C36.63549,20.29257 36.95499,20.02347 36.98559,19.66077 C37.01619,19.29807 36.74619,18.97947 36.38439,18.94887 C36.11979,18.92637 35.86779,19.06497 35.74539,19.29987 L35.74539,19.29987 Z M39.92949,51.17787 C39.75669,51.49737 39.87549,51.89697 40.19499,52.06977 C40.51449,52.24257 40.91409,52.12467 41.08689,51.80517 C41.26059,51.48567 41.14179,51.08607 40.82229,50.91237 C40.58379,50.78367 40.29129,50.81427 40.08429,50.98887 C40.02219,51.04197 39.97089,51.10587 39.93129,51.17697 L39.92949,51.17787 Z M20.16369,43.63137 C19.98999,43.95177 20.10879,44.35227 20.42829,44.52597 C20.74869,44.70057 21.14919,44.58177 21.32379,44.26227 C21.49749,43.94187 21.37869,43.54137 21.05919,43.36767 C20.86119,43.25967 20.62089,43.26057 20.42379,43.37037 C20.31399,43.42977 20.22399,43.52067 20.16459,43.63137 L20.16369,43.63137 Z M32.53149,19.36107 C32.46849,19.47807 32.44419,19.61037 32.46039,19.74177 C32.50179,20.10447 32.82939,20.36457 33.19119,20.32317 C33.55389,20.28177 33.81399,19.95417 33.77349,19.59147 C33.73209,19.22877 33.40359,18.96867 33.04179,19.01007 C32.82399,19.03527 32.63229,19.16667 32.53149,19.36107 L32.53149,19.36107 Z M29.39679,20.04867 C29.23119,20.36907 29.35539,20.76417 29.67669,20.92977 C29.99709,21.09717 30.39309,20.97117 30.55869,20.65077 C30.72519,20.32947 30.60009,19.93527 30.27969,19.76877 C30.12219,19.68777 29.93949,19.67337 29.77209,19.72827 C29.61009,19.78137 29.47509,19.89657 29.39679,20.04867 L29.39679,20.04867 Z M18.87759,40.69377 C18.79299,40.84947 18.77499,41.03307 18.83079,41.20137 C18.94329,41.54697 19.31319,41.73507 19.65879,41.62347 C19.82439,41.56947 19.96119,41.45247 20.04039,41.29767 C20.20509,40.97457 20.07819,40.57947 19.75509,40.41297 C19.59939,40.33377 19.41849,40.31937 19.25289,40.37337 C19.08999,40.42647 18.95589,40.54167 18.87759,40.69377 L18.87759,40.69377 Z M18.18729,37.55457 C18.01989,37.87497 18.14229,38.27007 18.46359,38.43747 C18.78309,38.60577 19.17909,38.48157 19.34649,38.16117 C19.51389,37.84167 19.39059,37.44657 19.07019,37.27827 C18.95319,37.21707 18.81909,37.19277 18.68769,37.20807 C18.47439,37.23507 18.28719,37.36557 18.18909,37.55637 L18.18729,37.55457 Z M26.45289,21.33207 C26.34759,21.52827 26.34939,21.76587 26.46099,21.95937 C26.63739,22.27437 27.03609,22.38687 27.35199,22.20957 C27.66609,22.03317 27.77859,21.63447 27.60219,21.31947 C27.42579,21.00447 27.02799,20.89197 26.71299,21.06747 C26.60319,21.12957 26.51319,21.22137 26.45289,21.33207 L26.45289,21.33207 Z M47.47779,24.98337 C47.39769,25.14087 47.38239,25.32357 47.43369,25.49277 C47.54529,25.83837 47.91609,26.02827 48.26169,25.91667 C48.60819,25.80507 48.79809,25.43427 48.68649,25.08867 C48.57489,24.74217 48.20409,24.55227 47.85849,24.66387 C47.69469,24.71697 47.55789,24.83127 47.47779,24.98337 L47.47779,24.98337 Z M42.50889,49.85937 C42.42879,50.01687 42.41259,50.19957 42.46479,50.36787 C42.57639,50.71437 42.94719,50.90427 43.29279,50.79267 C43.63839,50.68107 43.82829,50.31027 43.71669,49.96467 C43.60509,49.61817 43.23429,49.42917 42.88869,49.54077 C42.72579,49.59297 42.58899,49.70817 42.50889,49.85937 L42.50889,49.85937 Z M23.82039,23.16537 C23.64759,23.48397 23.76459,23.88177 24.08319,24.05547 C24.40089,24.22917 24.80049,24.11127 24.97329,23.79267 C25.10379,23.55417 25.07319,23.25897 24.89499,23.05287 C24.66369,22.77837 24.25329,22.74327 23.97879,22.97457 C23.97699,22.97637 23.97519,22.97817 23.97339,22.97907 C23.91129,23.03127 23.85909,23.09427 23.82039,23.16537 L23.82039,23.16537 Z M18.12339,34.34697 C18.08289,34.42527 18.05949,34.51077 18.05319,34.59807 C18.02439,34.95897 18.29439,35.27397 18.65529,35.30277 C19.01619,35.33067 19.33119,35.06157 19.35999,34.70067 C19.38429,34.33887 19.11159,34.02567 18.75069,33.99957 C18.49239,33.98157 18.24759,34.11747 18.12519,34.34697 L18.12339,34.34697 Z M21.59559,25.48017 C21.42279,25.79967 21.54159,26.19837 21.86019,26.37117 C22.17969,26.54397 22.57839,26.42517 22.75119,26.10567 C22.92399,25.78707 22.80519,25.38837 22.48659,25.21557 C22.20579,25.06347 21.85569,25.13547 21.65859,25.38567 C21.63429,25.41537 21.61359,25.44687 21.59559,25.48017 L21.59559,25.48017 Z M18.68679,31.18977 C18.66699,31.22937 18.65079,31.26987 18.63819,31.31217 C18.54009,31.66137 18.74259,32.02407 19.09269,32.12307 C19.44189,32.22117 19.80459,32.01777 19.90269,31.66857 C20.00169,31.31937 19.79829,30.95667 19.44909,30.85767 C19.14849,30.77307 18.82989,30.91167 18.68679,31.18977 L18.68679,31.18977 Z M19.85679,28.19997 C19.69209,28.52307 19.82079,28.91727 20.14299,29.08107 C20.46519,29.24577 20.86029,29.11707 21.02409,28.79487 C21.18789,28.47267 21.06009,28.07757 20.73789,27.91377 C20.41569,27.75087 20.02149,27.87867 19.85679,28.19997 L19.85679,28.19997 Z" id="Fill-3" fill="#00A0DE"></path>
                                    <path d="M35.55027,0.44991 C54.93537,0.44991 70.65027,16.16481 70.65027,35.54991 C70.65027,54.93501 54.93537,70.64991 35.55027,70.64991 C16.16517,70.64991 0.45027,54.93501 0.45027,35.54991 C0.45027,16.16481 16.16517,0.44991 35.55027,0.44991 Z" id="Stroke-5" stroke="#00A0DE" stroke-width="2.7"></path>
                                </g>
                            </g>
                        </g>
                        <g id="Stories-1" transform="translate(35.000000, 35.000000)" fill="#29A9DF" fill-rule="nonzero">
                            <path d="M2.41451907,5.96526741 C2.21906672,6.35637411 2.37767591,6.83187417 2.76878261,7.02732652 C3.15988932,7.22277887 3.63538938,7.06416968 3.83084173,6.67306298 C3.88996941,6.55474652 3.95280218,6.43832442 4.01923636,6.32395966 C4.23885405,5.94589334 4.11040605,5.46137471 3.73233973,5.24175702 C3.35427341,5.02213933 2.86975479,5.15058733 2.65013709,5.52865365 C2.56706308,5.67166348 2.48847995,5.81726922 2.41451907,5.96526741 Z M2.11567755,12.3593253 C2.27364072,12.7670184 2.73219577,12.9694646 3.13988893,12.8115014 C3.54758209,12.6535382 3.75002824,12.1949832 3.59206508,11.78729 C3.3120922,11.0646974 3.16666667,10.2930257 3.16666667,9.5 C3.16666667,9.06277457 2.81222543,8.70833333 2.375,8.70833333 C1.93777457,8.70833333 1.58333333,9.06277457 1.58333333,9.5 C1.58333333,10.4894569 1.76529838,11.4550183 2.11567755,12.3593253 Z M7.74030141,17.2202178 C8.16667262,17.3170355 8.59080102,17.0498796 8.68761871,16.6235083 C8.7844364,16.1971371 8.51728048,15.7730087 8.09090927,15.676191 C6.90963356,15.4079544 5.83503417,14.8042883 4.98790852,13.94434 C4.68107441,13.6328614 4.17983294,13.6290963 3.86835437,13.9359304 C3.5568758,14.2427645 3.55311072,14.744006 3.85994483,15.0554846 C4.91806682,16.1296231 6.26183427,16.8844968 7.74030141,17.2202178 Z M10.2916667,8.70833333 L12.6703103,8.70833333 C13.1055234,8.70833333 13.4583333,9.05972632 13.4583333,9.5 C13.4583333,9.93722543 13.1027909,10.2916667 12.6703103,10.2916667 L10.2916667,10.2916667 L10.2916667,12.6703103 C10.2916667,13.1055234 9.94027368,13.4583333 9.5,13.4583333 C9.06277457,13.4583333 8.70833333,13.1027909 8.70833333,12.6703103 L8.70833333,10.2916667 L6.32968974,10.2916667 C5.89447661,10.2916667 5.54166667,9.94027368 5.54166667,9.5 C5.54166667,9.06277457 5.89720907,8.70833333 6.32968974,8.70833333 L8.70833333,8.70833333 L8.70833333,6.32968974 C8.70833333,5.89447661 9.05972632,5.54166667 9.5,5.54166667 C9.93722543,5.54166667 10.2916667,5.89720907 10.2916667,6.32968974 L10.2916667,8.70833333 Z M17.4166667,9.5 C17.4166667,13.2131396 14.8402443,16.4037764 11.2666211,17.2186426 C10.8403374,17.3158448 10.4159682,17.0490716 10.318766,16.6227879 C10.2215637,16.1965042 10.488337,15.772135 10.9146207,15.6749327 C13.7717064,15.0234531 15.8333333,12.4703381 15.8333333,9.5 C15.8333333,6.00219658 12.9978034,3.16666667 9.5,3.16666667 C9.06277457,3.16666667 8.70833333,2.81222543 8.70833333,2.375 C8.70833333,1.93777457 9.06277457,1.58333333 9.5,1.58333333 C13.8722543,1.58333333 17.4166667,5.12774573 17.4166667,9.5 Z" id="Combined-Shape"></path>
                        </g>
                    </g>
                </g>
            </g>
        </g>
    </g>
</svg>