<?xml version="1.0" encoding="UTF-8" standalone="no"?>
<svg width="126px" height="125px" viewBox="0 0 126 125" version="1.1" xmlns="http://www.w3.org/2000/svg" xmlns:xlink="http://www.w3.org/1999/xlink">
    <!-- Generator: Sketch 39.1 (31720) - http://www.bohemiancoding.com/sketch -->
    <title>المشاركة الفعالة</title>
    <desc>Created with Sketch.</desc>
    <defs></defs>
    <g id="Page-1" stroke="none" stroke-width="1" fill="none" fill-rule="evenodd">
        <g id="المشاركة-الفعالة" transform="translate(2.000000, 2.000000)">
            <path d="M1.96774194,62.9677419 L7.87096774,62.9677419 L19.6774194,74.7741935 L31.483871,62.9677419 L49.1935484,62.9677419 L61,74.7741935 L72.8064516,62.9677419 L90.516129,62.9677419 L102.322581,74.7741935 L114.129032,62.9677419 L120.032258,62.9677419 C121.114516,62.9677419 122,62.0881613 122,61 L122,1.96774194 C122,0.879580645 121.114516,0 120.032258,0 L1.96774194,0 C0.885483871,0 0,0.879580645 0,1.96774194 L0,61 C0,62.0881613 0.885483871,62.9677419 1.96774194,62.9677419" id="Fill-15" fill="#FFFFFF"></path>
            <path d="M33.4516129,122 L3.93548387,122 C1.96774194,122 0,119.357323 0,116.096774 L0,112.16129 L13.7741935,104.290323 L25.5806452,104.290323 L39.3548387,112.16129 L55.0967742,104.290323 L66.9032258,104.290323 L82.6451613,112.16129 L96.4193548,104.290323 L108.225806,104.290323 L122,112.16129 L122,116.096774 C122,119.357323 120.032258,122 118.064516,122 L88.5483871,122" id="Fill-16" fill="#84CBCB"></path>
            <path d="M3.93548387,122 C1.96774194,122 0,119.357323 0,116.096774 L0,112.16129 L13.7741935,104.290323 L25.5806452,104.290323 L39.3548387,112.16129 L55.0967742,104.290323 L66.9032258,104.290323 L82.6451613,112.16129 L96.4193548,104.290323 L108.225806,104.290323 L122,112.16129 L122,116.096774 C122,119.357323 120.032258,122 118.064516,122 L3.93548387,122 L3.93548387,122 Z" id="Stroke-17" stroke="#464A48" stroke-width="2"></path>
            <path d="M29.516129,93.4677419 C29.516129,100.354839 25.6593548,106.258065 19.6774194,106.258065 C13.6954839,106.258065 9.83870968,100.354839 9.83870968,93.4677419 C9.83870968,86.5806452 11.8064516,82.6451613 19.6774194,82.6451613 C27.5483871,82.6451613 29.516129,86.5806452 29.516129,93.4677419" id="Fill-18" fill="#F7C06A"></path>
            <path d="M29.516129,93.4677419 C29.516129,100.354839 25.6593548,106.258065 19.6774194,106.258065 C13.6954839,106.258065 9.83870968,100.354839 9.83870968,93.4677419 C9.83870968,86.5806452 11.8064516,82.6451613 19.6774194,82.6451613 C27.5483871,82.6451613 29.516129,86.5806452 29.516129,93.4677419 L29.516129,93.4677419 Z" id="Stroke-19" stroke="#464A48" stroke-width="2"></path>
            <path d="M70.8387097,93.4677419 C70.8387097,100.354839 66.9819355,106.258065 61,106.258065 C55.0180645,106.258065 51.1612903,100.354839 51.1612903,93.4677419 C51.1612903,86.5806452 53.1290323,82.6451613 61,82.6451613 C68.8709677,82.6451613 70.8387097,86.5806452 70.8387097,93.4677419" id="Fill-20" fill="#F7C06A"></path>
            <path d="M70.8387097,93.4677419 C70.8387097,100.354839 66.9819355,106.258065 61,106.258065 C55.0180645,106.258065 51.1612903,100.354839 51.1612903,93.4677419 C51.1612903,86.5806452 53.1290323,82.6451613 61,82.6451613 C68.8709677,82.6451613 70.8387097,86.5806452 70.8387097,93.4677419 L70.8387097,93.4677419 Z" id="Stroke-21" stroke="#464A48" stroke-width="2"></path>
            <path d="M112.16129,93.4677419 C112.16129,100.354839 108.304516,106.258065 102.322581,106.258065 C96.3406452,106.258065 92.483871,100.354839 92.483871,93.4677419 C92.483871,86.5806452 94.4516129,82.6451613 102.322581,82.6451613 C110.193548,82.6451613 112.16129,86.5806452 112.16129,93.4677419" id="Fill-22" fill="#F7C06A"></path>
            <path d="M39.3548387,112.16129 L39.3548387,118.064516 L39.3548387,112.16129 Z M82.6451613,112.16129 L82.6451613,118.064516 L82.6451613,112.16129 Z M1.96774194,62.9677419 L7.87096774,62.9677419 L19.6774194,74.7741935 L31.483871,62.9677419 L49.1935484,62.9677419 L61,74.7741935 L72.8064516,62.9677419 L90.516129,62.9677419 L102.322581,74.7741935 L114.129032,62.9677419 L120.032258,62.9677419 C121.114516,62.9677419 122,62.0881613 122,61 L122,1.96774194 C122,0.879580645 121.114516,0 120.032258,0 L1.96774194,0 C0.885483871,0 0,0.879580645 0,1.96774194 L0,61 C0,62.0881613 0.885483871,62.9677419 1.96774194,62.9677419 L1.96774194,62.9677419 Z" id="Stroke-23" stroke="#464A48" stroke-width="3"></path>
            <path d="M112.16129,93.4677419 C112.16129,100.354839 108.304516,106.258065 102.322581,106.258065 C96.3406452,106.258065 92.483871,100.354839 92.483871,93.4677419 C92.483871,86.5806452 94.4516129,82.6451613 102.322581,82.6451613 C110.193548,82.6451613 112.16129,86.5806452 112.16129,93.4677419 L112.16129,93.4677419 Z" id="Path" stroke="#464A48" stroke-width="2"></path>
            <polyline id="Fill-24" fill="#E9962D" points="68.8709677 9.83870968 61 27.5483871 78.7096774 27.5483871 57.0645161 53.1290323 53.1290323 53.1290323 61 35.4193548 43.2903226 35.4193548 64.9354839 9.83870968 68.8709677 9.83870968"></polyline>
            <path d="M13.7741935,33.4516129 L17.7096774,33.4516129 M21.6451613,33.4516129 L25.5806452,33.4516129 M29.516129,33.4516129 L33.4516129,33.4516129 M88.5483871,33.4516129 L92.483871,33.4516129 M96.4193548,33.4516129 L100.354839,33.4516129 M104.290323,33.4516129 L108.225806,33.4516129" id="Stroke-25" stroke="#464A48" stroke-width="2"></path>
        </g>
    </g>
</svg>