<?xml version="1.0" encoding="UTF-8" standalone="no"?>
<svg width="141px" height="127px" viewBox="0 0 141 127" version="1.1" xmlns="http://www.w3.org/2000/svg" xmlns:xlink="http://www.w3.org/1999/xlink">
    <!-- Generator: Sketch 39.1 (31720) - http://www.bohemiancoding.com/sketch -->
    <title>إبتكار الوسم</title>
    <desc>Created with Sketch.</desc>
    <defs></defs>
    <g id="Page-1" stroke="none" stroke-width="1" fill="none" fill-rule="evenodd">
        <g id="إبتكار-الوسم" transform="translate(2.000000, 2.000000)">
            <polyline id="Fill-5078" fill="#FFFFFF" points="87.3965517 123 49.6034483 123 54.3275862 99.3461538 80.3103448 99.3461538 87.3965517 123"></polyline>
            <path d="M137,7.09615385 C137,3.16961538 133.834828,0 129.913793,0 L7.0862069,0 C3.17462069,0 0,3.16961538 0,7.09615385 L0,92.25 C0,96.1765385 3.17462069,99.3461538 7.0862069,99.3461538 L129.913793,99.3461538 C133.834828,99.3461538 137,96.1765385 137,92.25 L137,7.09615385" id="Fill-5079" fill="#FFFFFF"></path>
            <path d="M137,7.09615385 C137,3.16961538 133.834828,0 129.913793,0 L7.0862069,0 C3.17462069,0 0,3.16961538 0,7.09615385 L0,92.25 C0,96.1765385 3.17462069,99.3461538 7.0862069,99.3461538 L129.913793,99.3461538 C133.834828,99.3461538 137,96.1765385 137,92.25 L137,7.09615385 L137,7.09615385 Z M80.3103448,99.3461538 L87.3965517,123 L80.3103448,99.3461538 Z M49.6034483,123 L54.3275862,99.3461538 L49.6034483,123 Z M37.7931034,123 L99.2068966,123 L37.7931034,123 Z M0,80.4230769 L137,80.4230769 L0,80.4230769 Z M66.137931,89.8846154 L70.862069,89.8846154 L66.137931,89.8846154 Z" id="Stroke-5080" stroke="#464A48" stroke-width="3"></path>
            <polygon id="Fill-5081" fill="#9B9B9B" points="7.0862069 73.3269231 129.913793 73.3269231 129.913793 7.09615385 7.0862069 7.09615385"></polygon>
            <polygon id="Fill-5082" fill="#CBCBCB" points="11.8103448 68.5961538 125.189655 68.5961538 125.189655 11.8269231 11.8103448 11.8269231"></polygon>
            <path d="M69.8274828,48.0953654 L64.4868448,48.0953654 L63.4546207,56.7692308 L57.0368793,56.7692308 L57.0368793,55.7805 L57.9793448,48.0953654 L52.9528621,48.0953654 L53.670931,41.8483846 L58.7422931,41.8483846 L59.3257241,37.1294423 L53.8504483,37.1294423 L54.5685172,30.8824615 L60.1335517,30.8824615 L61.2555345,21.8041154 L67.6283966,21.8041154 L67.6283966,22.7928462 L66.5961724,30.8824615 L71.9816897,30.8824615 L73.1036724,21.8041154 L79.4765345,21.8041154 L79.4765345,22.7928462 L78.4443103,30.8824615 L83.8298276,30.8824615 L83.1117586,37.1294423 L77.6813621,37.1294423 L77.097931,41.8483846 L82.9322414,41.8483846 L82.2141724,48.0953654 L76.3349828,48.0953654 L75.3027586,56.7692308 L68.8850172,56.7692308 L68.8850172,55.7805 L69.8274828,48.0953654 Z M65.2497931,41.8483846 L70.590431,41.8483846 L71.1738621,37.1294423 L65.8332241,37.1294423 L65.2497931,41.8483846 Z" id="#" fill="#373A38"></path>
        </g>
    </g>
</svg>