<?xml version="1.0" encoding="UTF-8" standalone="no"?>
<svg width="116px" height="117px" viewBox="0 0 116 117" version="1.1" xmlns="http://www.w3.org/2000/svg" xmlns:xlink="http://www.w3.org/1999/xlink">
    <!-- Generator: Sketch 39.1 (31720) - http://www.bohemiancoding.com/sketch -->
    <title>تحقيق النمو</title>
    <desc>Created with Sketch.</desc>
    <defs></defs>
    <g id="Page-1" stroke="none" stroke-width="1" fill="none" fill-rule="evenodd">
        <g id="تحقيق-النمو" transform="translate(2.000000, 0.000000)">
            <path d="M34.3809524,116.229885 L34.3809524,94.4367816 C34.3809524,76.2758621 19.9047619,61.0170575 19.9047619,39.954023 C19.9047619,18.8909885 40.5333333,0 61.5238095,0 C82.5142857,0 103.142857,18.8909885 103.142857,39.954023 L114,67.1954023 L103.142857,67.1954023 L103.142857,83.5402299 C103.142857,89.5569425 98.2752381,94.4367816 92.2857143,94.4367816 L77.8095238,94.4367816 L77.8095238,116.229885" id="Fill-448" fill="#E9962D"></path>
            <polyline id="Fill-449" fill="#FFFFFF" points="50.6666667 47.2183908 39.8095238 47.2183908 0 114.413793 10.8571429 114.413793 50.6666667 47.2183908"></polyline>
            <polygon id="Stroke-450" stroke="#464A48" stroke-width="3" stroke-linejoin="round" points="50.6666667 47.2183908 39.8095238 47.2183908 0 114.413793 10.8571429 114.413793"></polygon>
            <polyline id="Fill-451" fill="#FFFFFF" points="50.6666667 47.2183908 39.8095238 47.2183908 54.2857143 72.6436782 65.1428571 72.6436782 50.6666667 47.2183908"></polyline>
            <polygon id="Stroke-452" stroke="#464A48" stroke-width="2" stroke-linejoin="round" points="50.6666667 47.2183908 39.8095238 47.2183908 54.2857143 72.6436782 65.1428571 72.6436782"></polygon>
            <polyline id="Fill-453" fill="#FFFFFF" points="97.7142857 16.3448276 86.8571429 16.3448276 54.2857143 72.6436782 65.1428571 72.6436782 97.7142857 16.3448276"></polyline>
            <polygon id="Stroke-454" stroke="#464A48" stroke-width="3" stroke-linejoin="round" points="97.7142857 16.3448276 86.8571429 16.3448276 54.2857143 72.6436782 65.1428571 72.6436782"></polygon>
            <polyline id="Fill-455" fill="#FFFFFF" points="101.333333 1.81609195 80.0714286 14.5287356 99.5238095 25.4252874 101.333333 1.81609195"></polyline>
            <path d="M101.333333,1.81609195 L80.0714286,14.5287356 L99.5238095,25.4252874 L101.333333,1.81609195 L101.333333,1.81609195 Z M45.2380952,32.6896552 L48.8571429,32.6896552 L45.2380952,32.6896552 Z M52.4761905,32.6896552 L56.0952381,32.6896552 L52.4761905,32.6896552 Z M59.7142857,32.6896552 L63.3333333,32.6896552 L59.7142857,32.6896552 Z" id="Stroke-456" stroke="#464A48" stroke-width="3" stroke-linejoin="round"></path>
        </g>
    </g>
</svg>