<?xml version="1.0" encoding="UTF-8" standalone="no"?>
<svg width="140px" height="119px" viewBox="0 0 140 119" version="1.1" xmlns="http://www.w3.org/2000/svg" xmlns:xlink="http://www.w3.org/1999/xlink">
    <!-- Generator: Sketch 39.1 (31720) - http://www.bohemiancoding.com/sketch -->
    <title>نقدم لك التقارير التي تخدم أهدافك</title>
    <desc>Created with Sketch.</desc>
    <defs></defs>
    <g id="Page-1" stroke="none" stroke-width="1" fill="none" fill-rule="evenodd">
        <g id="نقدم-لك-التقارير-التي-تخدم-أهدافك" transform="translate(1.000000, 2.000000)">
            <polyline id="Fill-3492" fill="#77C6C6" points="128.749331 28.75 88.7926422 68.5576923 48.8359532 44.2307692 8.87926422 84.0384615 8.87926422 0 128.749331 0 128.749331 28.75"></polyline>
            <polyline id="Fill-3493" fill="#E5842D" points="48.8359532 115 8.87926422 115 8.87926422 84.0384615 48.8359532 44.2307692 48.8359532 115"></polyline>
            <polyline id="Fill-3494" fill="#E5842D" points="48.8359532 44.2307692 48.8359532 115 88.7926422 115 88.7926422 68.5576923 48.8359532 44.2307692"></polyline>
            <polyline id="Fill-3495" fill="#F4B25A" points="128.749331 28.75 88.7926422 68.5576923 88.7926422 115 128.749331 115 128.749331 28.75"></polyline>
            <path d="M8.87926422,115 L128.749331,115 L128.749331,0 L8.87926422,0 L8.87926422,115 Z M88.7926422,68.5576923 L128.749331,28.75 L88.7926422,68.5576923 Z M48.8359532,44.2307692 L88.7926422,68.5576923 L48.8359532,44.2307692 Z M8.87926422,84.0384615 L48.8359532,44.2307692 L8.87926422,84.0384615 Z" id="Stroke-3496" stroke="#464A48" stroke-width="3"></path>
            <path d="M17.7585284,84.0384615 C17.7585284,88.9259615 13.7850577,92.8846154 8.87926422,92.8846154 C3.97347074,92.8846154 0,88.9259615 0,84.0384615 C0,79.1509615 3.97347074,75.1923077 8.87926422,75.1923077 C13.7850577,75.1923077 17.7585284,79.1509615 17.7585284,84.0384615" id="Fill-3497" fill="#FFFFFF"></path>
            <path d="M17.7585284,84.0384615 C17.7585284,88.9259615 13.7850577,92.8846154 8.87926422,92.8846154 C3.97347074,92.8846154 0,88.9259615 0,84.0384615 C0,79.1509615 3.97347074,75.1923077 8.87926422,75.1923077 C13.7850577,75.1923077 17.7585284,79.1509615 17.7585284,84.0384615 L17.7585284,84.0384615 Z" id="Stroke-3498" stroke="#464A48" stroke-width="2"></path>
            <path d="M57.7152175,44.2307692 C57.7152175,49.1182692 53.7417467,53.0769231 48.8359532,53.0769231 C43.9301597,53.0769231 39.956689,49.1182692 39.956689,44.2307692 C39.956689,39.3432692 43.9301597,35.3846154 48.8359532,35.3846154 C53.7417467,35.3846154 57.7152175,39.3432692 57.7152175,44.2307692" id="Fill-3499" fill="#FFFFFF"></path>
            <path d="M57.7152175,44.2307692 C57.7152175,49.1182692 53.7417467,53.0769231 48.8359532,53.0769231 C43.9301597,53.0769231 39.956689,49.1182692 39.956689,44.2307692 C39.956689,39.3432692 43.9301597,35.3846154 48.8359532,35.3846154 C53.7417467,35.3846154 57.7152175,39.3432692 57.7152175,44.2307692 L57.7152175,44.2307692 Z" id="Stroke-3500" stroke="#464A48" stroke-width="2"></path>
            <path d="M97.6719065,68.5576923 C97.6719065,73.4451923 93.6984357,77.4038462 88.7926422,77.4038462 C83.8868487,77.4038462 79.913378,73.4451923 79.913378,68.5576923 C79.913378,63.6701923 83.8868487,59.7115385 88.7926422,59.7115385 C93.6984357,59.7115385 97.6719065,63.6701923 97.6719065,68.5576923" id="Fill-3501" fill="#FFFFFF"></path>
            <path d="M97.6719065,68.5576923 C97.6719065,73.4451923 93.6984357,77.4038462 88.7926422,77.4038462 C83.8868487,77.4038462 79.913378,73.4451923 79.913378,68.5576923 C79.913378,63.6701923 83.8868487,59.7115385 88.7926422,59.7115385 C93.6984357,59.7115385 97.6719065,63.6701923 97.6719065,68.5576923 L97.6719065,68.5576923 Z" id="Stroke-3502" stroke="#464A48" stroke-width="2"></path>
            <path d="M137.628595,28.75 C137.628595,33.6375 133.655125,37.5961538 128.749331,37.5961538 C123.843538,37.5961538 119.870067,33.6375 119.870067,28.75 C119.870067,23.8625 123.843538,19.9038462 128.749331,19.9038462 C133.655125,19.9038462 137.628595,23.8625 137.628595,28.75" id="Fill-3503" fill="#FFFFFF"></path>
            <path d="M137.628595,28.75 C137.628595,33.6375 133.655125,37.5961538 128.749331,37.5961538 C123.843538,37.5961538 119.870067,33.6375 119.870067,28.75 C119.870067,23.8625 123.843538,19.9038462 128.749331,19.9038462 C133.655125,19.9038462 137.628595,23.8625 137.628595,28.75 L137.628595,28.75 Z M42.1765051,13.2692308 L37.7368729,13.2692308 L42.1765051,13.2692308 Z M33.2972408,13.2692308 L28.8576087,13.2692308 L33.2972408,13.2692308 Z M24.4179766,13.2692308 L19.9783445,13.2692308 L24.4179766,13.2692308 Z" id="Stroke-3504" stroke="#464A48" stroke-width="2"></path>
        </g>
    </g>
</svg>