<?xml version="1.0" encoding="UTF-8" standalone="no"?>
<svg width="132px" height="132px" viewBox="0 0 132 132" version="1.1" xmlns="http://www.w3.org/2000/svg" xmlns:xlink="http://www.w3.org/1999/xlink">
    <!-- Generator: Sketch 39.1 (31720) - http://www.bohemiancoding.com/sketch -->
    <title>توقيت التقارير</title>
    <desc>Created with Sketch.</desc>
    <defs></defs>
    <g id="Page-1" stroke="none" stroke-width="1" fill="none" fill-rule="evenodd">
        <g id="توقيت-التقارير">
            <path d="M132,66 C132,102.452625 102.444375,132 66,132 C29.555625,132 0,102.452625 0,66 C0,29.547375 29.555625,0 66,0 C102.444375,0 132,29.547375 132,66" id="Fill-123" fill="#CBCBCB"></path>
            <path d="M63.9375,10.3125 L68.0625,10.3125 M63.9375,2.0625 L68.0625,2.0625 M63.9375,129.9375 L68.0625,129.9375 M63.9375,121.6875 L68.0625,121.6875" id="Stroke-127" stroke="#464A48" stroke-width="2" stroke-linejoin="round"></path>
            <path d="M121.6875,70.125 C121.6875,71.2655625 120.759375,72.1875 119.625,72.1875 L111.375,72.1875 C110.240625,72.1875 109.3125,71.2655625 109.3125,70.125 L109.3125,61.875 C109.3125,60.7344375 110.240625,59.8125 111.375,59.8125 L119.625,59.8125 C120.759375,59.8125 121.6875,60.7344375 121.6875,61.875 L121.6875,70.125" id="Fill-128" fill="#FFFFFF"></path>
            <path d="M121.6875,70.125 C121.6875,71.2655625 120.759375,72.1875 119.625,72.1875 L111.375,72.1875 C110.240625,72.1875 109.3125,71.2655625 109.3125,70.125 L109.3125,61.875 C109.3125,60.7344375 110.240625,59.8125 111.375,59.8125 L119.625,59.8125 C120.759375,59.8125 121.6875,60.7344375 121.6875,61.875 L121.6875,70.125 L121.6875,70.125 Z" id="Stroke-129" stroke="#464A48" stroke-width="3" stroke-linejoin="round"></path>
            <path d="M113.4375,66 C113.4375,92.1999375 92.19375,113.4375 66,113.4375 C39.80625,113.4375 18.5625,92.1999375 18.5625,66 C18.5625,39.8000625 39.80625,18.5625 66,18.5625 C92.19375,18.5625 113.4375,39.8000625 113.4375,66" id="Fill-130" fill="#FFFFFF"></path>
            <path d="M86.625,66 C86.625,77.3911875 77.385,86.625 66,86.625 C54.615,86.625 45.375,77.3911875 45.375,66 C45.375,54.6088125 54.615,45.375 66,45.375 C77.385,45.375 86.625,54.6088125 86.625,66" id="Fill-131" fill="#BCE1E1"></path>
            <path d="M113.4375,66 C113.4375,92.1999375 92.19375,113.4375 66,113.4375 C39.80625,113.4375 18.5625,92.1999375 18.5625,66 C18.5625,39.8000625 39.80625,18.5625 66,18.5625 C92.19375,18.5625 113.4375,39.8000625 113.4375,66 L113.4375,66 Z M66,66 L47.4375,47.4375 L66,66 Z M66,66 L92.8125,39.1875 L66,66 Z" id="Stroke-132" stroke="#464A48" stroke-width="3" stroke-linejoin="round"></path>
            <path d="M72.1875,66 C72.1875,69.4155 69.42375,72.1875 66,72.1875 C62.57625,72.1875 59.8125,69.4155 59.8125,66 C59.8125,62.5845 62.57625,59.8125 66,59.8125 C69.42375,59.8125 72.1875,62.5845 72.1875,66" id="Fill-133" fill="#FFFFFF"></path>
            <path d="M72.1875,66 C72.1875,69.4155 69.42375,72.1875 66,72.1875 C62.57625,72.1875 59.8125,69.4155 59.8125,66 C59.8125,62.5845 62.57625,59.8125 66,59.8125 C69.42375,59.8125 72.1875,62.5845 72.1875,66 L72.1875,66 Z" id="Stroke-134" stroke="#464A48" stroke-width="3" stroke-linejoin="round"></path>
        </g>
    </g>
</svg>