<?xml version="1.0" encoding="UTF-8" standalone="no"?>
<svg width="120px" height="132px" viewBox="0 0 120 132" version="1.1" xmlns="http://www.w3.org/2000/svg" xmlns:xlink="http://www.w3.org/1999/xlink">
    <!-- Generator: Sketch 39.1 (31720) - http://www.bohemiancoding.com/sketch -->
    <title>محتوى التقارير</title>
    <desc>Created with Sketch.</desc>
    <defs></defs>
    <g id="Page-1" stroke="none" stroke-width="1" fill="none" fill-rule="evenodd">
        <g id="محتوى-التقارير" transform="translate(2.000000, 2.000000)">
            <polyline id="Fill-135" fill="#FFFFFF" points="16.5714286 111.428571 16.5714286 0 82.8571429 0 99.4285714 16.5079365 99.4285714 111.428571 16.5714286 111.428571"></polyline>
            <polygon id="Fill-136" fill="#BCE1E1" points="22.7857143 105.238095 93.2142857 105.238095 93.2142857 47.4603175 22.7857143 47.4603175"></polygon>
            <polyline id="Stroke-137" stroke="#464A48" stroke-width="3" stroke-linejoin="round" points="16.5714286 111.428571 16.5714286 0 82.8571429 0 99.4285714 16.5079365 99.4285714 111.428571"></polyline>
            <path d="M29,68.0952381 L29,55.7142857 C29,52.2971429 26.3071429,49.5238095 22.8892857,49.5238095 C22.62,49.5238095 22.3921429,49.5526984 22.1435714,49.6022222 C19.0778571,49.9922222 16.5714286,52.5633333 16.5714286,55.7142857 L6.40071429,61.9047619 L0,80.4761905 L8.28571429,105.238095 L8.28571429,111.428571 L33.1428571,111.428571 L33.1428571,86.6666667 L29,68.0952381" id="Fill-138" fill="#F7C06A"></path>
            <polyline id="Stroke-139" stroke="#464A48" stroke-width="3" stroke-linejoin="round" points="8.28571429 111.428571 8.28571429 105.238095 0 80.4761905 6.35928571 61.9047619 16.5714286 55.7142857"></polyline>
            <path d="M33.1428571,113.492063 L33.1428571,86.6666667 L29,68.0952381 L29,55.7142857 C29,52.2971429 26.4107143,49.5238095 22.9721429,49.5238095 C19.5542857,49.5238095 16.5714286,52.2971429 16.5714286,55.7142857 L16.5714286,72.2222222 L14.5,86.6666667" id="Stroke-140" stroke="#464A48" stroke-width="3"></path>
            <polygon id="Fill-141" fill="#84CBCB" points="4.14285714 130 37.2857143 130 37.2857143 111.428571 4.14285714 111.428571"></polygon>
            <polyline id="Stroke-142" stroke="#464A48" stroke-width="3" stroke-linejoin="round" points="4.14285714 130 4.14285714 111.428571 37.2857143 111.428571 37.2857143 130"></polyline>
            <path d="M31.0714286,119.68254 L26.9285714,119.68254" id="Stroke-143" stroke="#464A48" stroke-width="2"></path>
            <path d="M87,68.0952381 L87,55.7142857 C87,52.2971429 89.6928571,49.5238095 93.1107143,49.5238095 C93.38,49.5238095 93.6078571,49.5526984 93.8564286,49.6022222 C96.9221429,49.9922222 99.4285714,52.5633333 99.4285714,55.7142857 L109.599286,61.9047619 L116,80.4761905 L107.714286,105.238095 L107.714286,111.428571 L82.8571429,111.428571 L82.8571429,86.6666667 L87,68.0952381" id="Fill-144" fill="#F7C06A"></path>
            <polyline id="Stroke-145" stroke="#464A48" stroke-width="3" stroke-linejoin="round" points="107.714286 111.428571 107.714286 105.238095 116 80.4761905 109.640714 61.9047619 99.4285714 55.7142857"></polyline>
            <path d="M82.8571429,113.492063 L82.8571429,86.6666667 L87,68.0952381 L87,55.7142857 C87,52.2971429 89.5892857,49.5238095 93.0278571,49.5238095 C96.4457143,49.5238095 99.4285714,52.2971429 99.4285714,55.7142857 L99.4285714,72.2222222 L101.5,86.6666667" id="Stroke-146" stroke="#464A48" stroke-width="3"></path>
            <polygon id="Fill-147" fill="#84CBCB" points="78.7142857 130 111.857143 130 111.857143 111.428571 78.7142857 111.428571"></polygon>
            <polyline id="Stroke-148" stroke="#464A48" stroke-width="3" stroke-linejoin="round" points="111.857143 130 111.857143 111.428571 78.7142857 111.428571 78.7142857 130"></polyline>
            <path d="M84.9285714,119.68254 L89.0714286,119.68254 M99.4285714,16.5079365 L82.8571429,16.5079365 L82.8571429,0" id="Stroke-149" stroke="#464A48" stroke-width="2"></path>
            <polygon id="Fill-150" fill="#E9962D" points="22.7857143 18.5714286 76.6428571 18.5714286 76.6428571 6.19047619 22.7857143 6.19047619"></polygon>
            <path d="M39.3571429,12.3809524 L43.5,12.3809524 M47.6428571,12.3809524 L51.7857143,12.3809524 M55.9285714,12.3809524 L60.0714286,12.3809524 M22.7857143,24.7619048 L93.2142857,24.7619048 M22.7857143,33.015873 L93.2142857,33.015873 M22.7857143,41.2698413 L93.2142857,41.2698413 M66.2857143,96.984127 L66.2857143,63.968254 M74.5714286,96.984127 L74.5714286,72.2222222 M58,96.984127 L58,76.3492063 M49.7142857,96.984127 L49.7142857,70.1587302 M41.4285714,96.984127 L41.4285714,80.4761905 M37.2857143,111.428571 L78.7142857,111.428571" id="Stroke-151" stroke="#464A48" stroke-width="2" stroke-linejoin="round"></path>
        </g>
    </g>
</svg>