<?xml version="1.0" encoding="UTF-8" standalone="no"?>
<svg width="126px" height="126px" viewBox="0 0 126 126" version="1.1" xmlns="http://www.w3.org/2000/svg" xmlns:xlink="http://www.w3.org/1999/xlink">
    <!-- Generator: Sketch 39.1 (31720) - http://www.bohemiancoding.com/sketch -->
    <title>تحديد الموضوع ورسم الأهداف</title>
    <desc>Created with Sketch.</desc>
    <defs></defs>
    <g id="Page-1" stroke="none" stroke-width="1" fill="none" fill-rule="evenodd">
        <g id="تحديد-الموضوع-ورسم-الأهداف">
            <path d="M126,63 C126,97.7878125 97.7878125,126 63,126 C28.2121875,126 0,97.7878125 0,63 C0,28.2121875 28.2121875,0 63,0 C97.7878125,0 126,28.2121875 126,63" id="Fill-601" fill="#E9962D"></path>
            <polyline id="Fill-602" fill="#FFFFFF" points="78.75 98.4375 64.96875 64.96875 98.4375 78.75 82.6875 82.6875 78.75 98.4375"></polyline>
            <polygon id="Stroke-603" stroke="#464A48" stroke-width="3" points="78.75 98.4375 64.96875 64.96875 98.4375 78.75 82.6875 82.6875"></polygon>
            <path d="M63,7.875 C63,45.28125 45.28125,63 7.875,63 M49.21875,49.21875 L118.125,63 M49.21875,49.21875 L63,118.125" id="Stroke-604" stroke="#464A48" stroke-width="3" stroke-linejoin="round"></path>
            <polygon id="Fill-605" fill="#FFFFFF" points="1.96875 68.90625 13.78125 68.90625 13.78125 57.09375 1.96875 57.09375"></polygon>
            <polygon id="Stroke-606" stroke="#464A48" stroke-width="2" points="1.96875 68.90625 13.78125 68.90625 13.78125 57.09375 1.96875 57.09375"></polygon>
            <polygon id="Fill-607" fill="#FFFFFF" points="112.21875 68.90625 124.03125 68.90625 124.03125 57.09375 112.21875 57.09375"></polygon>
            <polygon id="Stroke-608" stroke="#464A48" stroke-width="2" points="112.21875 68.90625 124.03125 68.90625 124.03125 57.09375 112.21875 57.09375"></polygon>
            <polygon id="Fill-609" fill="#FFFFFF" points="57.09375 124.03125 68.90625 124.03125 68.90625 112.21875 57.09375 112.21875"></polygon>
            <polygon id="Stroke-610" stroke="#464A48" stroke-width="2" points="57.09375 124.03125 68.90625 124.03125 68.90625 112.21875 57.09375 112.21875"></polygon>
            <polygon id="Fill-611" fill="#FFFFFF" points="57.09375 13.78125 68.90625 13.78125 68.90625 1.96875 57.09375 1.96875"></polygon>
            <polygon id="Stroke-612" stroke="#464A48" stroke-width="2" points="57.09375 13.78125 68.90625 13.78125 68.90625 1.96875 57.09375 1.96875"></polygon>
            <path d="M57.09375,49.21875 C57.09375,53.5696875 53.5696875,57.09375 49.21875,57.09375 C44.8678125,57.09375 41.34375,53.5696875 41.34375,49.21875 C41.34375,44.8678125 44.8678125,41.34375 49.21875,41.34375 C53.5696875,41.34375 57.09375,44.8678125 57.09375,49.21875" id="Fill-613" fill="#FFFFFF"></path>
            <path d="M57.09375,49.21875 C57.09375,53.5696875 53.5696875,57.09375 49.21875,57.09375 C44.8678125,57.09375 41.34375,53.5696875 41.34375,49.21875 C41.34375,44.8678125 44.8678125,41.34375 49.21875,41.34375 C53.5696875,41.34375 57.09375,44.8678125 57.09375,49.21875 L57.09375,49.21875 Z M76.78125,7.875 L80.71875,7.875 L76.78125,7.875 Z M84.65625,7.875 L88.59375,7.875 L84.65625,7.875 Z M92.53125,7.875 L96.46875,7.875 L92.53125,7.875 Z M100.40625,7.875 L104.34375,7.875 L100.40625,7.875 Z M108.28125,7.875 L112.21875,7.875 L108.28125,7.875 Z M116.15625,7.875 L120.09375,7.875 L116.15625,7.875 Z M116.15625,15.75 L120.09375,15.75 L116.15625,15.75 Z M116.15625,23.625 L120.09375,23.625 L116.15625,23.625 Z M116.15625,31.5 L120.09375,31.5 L116.15625,31.5 Z M116.15625,39.375 L120.09375,39.375 L116.15625,39.375 Z M116.15625,47.25 L120.09375,47.25 L116.15625,47.25 Z M49.21875,7.875 L45.28125,7.875 L49.21875,7.875 Z M41.34375,7.875 L37.40625,7.875 L41.34375,7.875 Z M33.46875,7.875 L29.53125,7.875 L33.46875,7.875 Z M25.59375,7.875 L21.65625,7.875 L25.59375,7.875 Z M17.71875,7.875 L13.78125,7.875 L17.71875,7.875 Z M9.84375,7.875 L5.90625,7.875 L9.84375,7.875 Z M9.84375,15.75 L5.90625,15.75 L9.84375,15.75 Z M9.84375,23.625 L5.90625,23.625 L9.84375,23.625 Z M9.84375,31.5 L5.90625,31.5 L9.84375,31.5 Z M9.84375,39.375 L5.90625,39.375 L9.84375,39.375 Z M9.84375,47.25 L5.90625,47.25 L9.84375,47.25 Z M76.78125,118.125 L80.71875,118.125 L76.78125,118.125 Z M84.65625,118.125 L88.59375,118.125 L84.65625,118.125 Z M92.53125,118.125 L96.46875,118.125 L92.53125,118.125 Z M100.40625,118.125 L104.34375,118.125 L100.40625,118.125 Z M108.28125,118.125 L112.21875,118.125 L108.28125,118.125 Z M116.15625,118.125 L120.09375,118.125 L116.15625,118.125 Z M116.15625,110.25 L120.09375,110.25 L116.15625,110.25 Z M116.15625,102.375 L120.09375,102.375 L116.15625,102.375 Z M116.15625,94.5 L120.09375,94.5 L116.15625,94.5 Z M116.15625,86.625 L120.09375,86.625 L116.15625,86.625 Z M116.15625,78.75 L120.09375,78.75 L116.15625,78.75 Z M49.21875,118.125 L45.28125,118.125 L49.21875,118.125 Z M41.34375,118.125 L37.40625,118.125 L41.34375,118.125 Z M33.46875,118.125 L29.53125,118.125 L33.46875,118.125 Z M25.59375,118.125 L21.65625,118.125 L25.59375,118.125 Z M17.71875,118.125 L13.78125,118.125 L17.71875,118.125 Z M9.84375,118.125 L5.90625,118.125 L9.84375,118.125 Z M9.84375,110.25 L5.90625,110.25 L9.84375,110.25 Z M9.84375,102.375 L5.90625,102.375 L9.84375,102.375 Z M9.84375,94.5 L5.90625,94.5 L9.84375,94.5 Z M9.84375,86.625 L5.90625,86.625 L9.84375,86.625 Z M9.84375,78.75 L5.90625,78.75 L9.84375,78.75 Z" id="Stroke-614" stroke="#464A48" stroke-width="2" stroke-linejoin="round"></path>
        </g>
    </g>
</svg>