<?xml version="1.0" encoding="UTF-8" standalone="no"?>
<svg width="125px" height="140px" viewBox="0 0 125 140" version="1.1" xmlns="http://www.w3.org/2000/svg" xmlns:xlink="http://www.w3.org/1999/xlink">
    <!-- Generator: Sketch 39.1 (31720) - http://www.bohemiancoding.com/sketch -->
    <title>تقييم الوضع الحالي على شبكات التواصل الاجتماعي</title>
    <desc>Created with Sketch.</desc>
    <defs></defs>
    <g id="Page-1" stroke="none" stroke-width="1" fill="none" fill-rule="evenodd">
        <g id="تقييم-الوضع-الحالي-على-شبكات-التواصل-الاجتماعي" transform="translate(2.000000, 2.000000)">
            <polygon id="Fill-3696" fill="#FFFFFF" points="0 116.709677 121 116.709677 121 0 0 0"></polygon>
            <path d="M0,116.709677 L121,116.709677 L121,0 L0,0 L0,116.709677 Z M2.16071429,17.2903226 L118.839286,17.2903226 L2.16071429,17.2903226 Z M6.48214286,8.64516129 L10.8035714,8.64516129 L6.48214286,8.64516129 Z M15.125,8.64516129 L19.4464286,8.64516129 L15.125,8.64516129 Z M23.7678571,8.64516129 L28.0892857,8.64516129 L23.7678571,8.64516129 Z M34.5714286,2.16129032 L34.5714286,15.1290323 L34.5714286,2.16129032 Z M41.0535714,8.64516129 L114.517857,8.64516129 L41.0535714,8.64516129 Z" id="Stroke-3697" stroke="#464A48" stroke-width="3"></path>
            <polygon id="Fill-3698" fill="#77C6C6" points="10.8035714 49.7096774 110.196429 49.7096774 110.196429 28.0967742 10.8035714 28.0967742"></polygon>
            <path d="M110.196429,103.741935 L75.625,103.741935 M110.196429,95.0967742 L75.625,95.0967742 M45.375,103.741935 L10.8035714,103.741935 M45.375,95.0967742 L10.8035714,95.0967742" id="Stroke-3699" stroke="#464A48" stroke-width="2"></path>
            <polygon id="Fill-3700" fill="#E5842D" points="10.8035714 88.6129032 110.196429 88.6129032 110.196429 54.0322581 10.8035714 54.0322581"></polygon>
            <path d="M69.1428571,87.4516129 L69.1428571,126.354839 C69.1428571,131.13129 65.2751786,135 60.5,135 C55.7248214,135 51.8571429,131.13129 51.8571429,126.354839 L51.8571429,87.4516129" id="Fill-3701" fill="#77C6C6"></path>
            <path d="M88.5892857,58.3548387 C88.5892857,73.8729032 76.0139286,86.4516129 60.5,86.4516129 C44.9860714,86.4516129 32.4107143,73.8729032 32.4107143,58.3548387 C32.4107143,42.8367742 44.9860714,30.2580645 60.5,30.2580645 C76.0139286,30.2580645 88.5892857,42.8367742 88.5892857,58.3548387" id="Fill-3702" fill="#FFFFFF"></path>
            <path d="M88.5892857,58.3548387 C88.5892857,73.8729032 76.0139286,86.4516129 60.5,86.4516129 C44.9860714,86.4516129 32.4107143,73.8729032 32.4107143,58.3548387 C32.4107143,42.8367742 44.9860714,30.2580645 60.5,30.2580645 C76.0139286,30.2580645 88.5892857,42.8367742 88.5892857,58.3548387 L88.5892857,58.3548387 Z M69.1428571,86.2903226 L69.1428571,127.354839 C69.1428571,132.13129 65.2751786,136 60.5,136 C55.7248214,136 51.8571429,132.13129 51.8571429,127.354839 L51.8571429,86.2903226 L69.1428571,86.2903226 Z M60.5,118.870968 L60.5,123.193548 L60.5,118.870968 Z" id="Stroke-3703" stroke="#464A48" stroke-width="3"></path>
            <polyline id="Stroke-3704" stroke="#464A48" stroke-width="3" stroke-linejoin="round" points="73.4642857 49.7096774 56.1785714 67 47.5357143 58.3548387"></polyline>
        </g>
    </g>
</svg>