<?xml version="1.0" encoding="UTF-8" standalone="no"?>
<svg width="129px" height="131px" viewBox="0 0 129 131" version="1.1" xmlns="http://www.w3.org/2000/svg" xmlns:xlink="http://www.w3.org/1999/xlink">
    <!-- Generator: Sketch 39.1 (31720) - http://www.bohemiancoding.com/sketch -->
    <title>إنشاء خطة المحتوى والتقويم</title>
    <desc>Created with Sketch.</desc>
    <defs></defs>
    <g id="Page-1" stroke="none" stroke-width="1" fill="none" fill-rule="evenodd">
        <g id="إنشاء-خطة-المحتوى-والتقويم" transform="translate(0.000000, 2.000000)">
            <path d="M129,64.5 C129,100.116094 100.116094,129 64.5,129 C28.8839062,129 0,100.116094 0,64.5 C0,28.8839062 28.8839062,0 64.5,0 C100.116094,0 129,28.8839062 129,64.5" id="Fill-390" fill="#E9962D"></path>
            <path d="M44.34375,88.6875 C44.34375,96.4879687 38.0348437,102.796875 30.234375,102.796875 C22.4339063,102.796875 16.125,96.4879687 16.125,88.6875 C16.125,80.8870313 22.4339063,74.578125 30.234375,74.578125 C38.0348437,74.578125 44.34375,80.8870313 44.34375,88.6875" id="Fill-391" fill="#FFFFFF"></path>
            <path d="M112.875,44.34375 C112.875,59.9245313 100.237031,72.5625 84.65625,72.5625 C69.0754687,72.5625 56.4375,59.9245313 56.4375,44.34375 C56.4375,28.7629687 69.0754687,16.125 84.65625,16.125 C100.237031,16.125 112.875,28.7629687 112.875,44.34375" id="Fill-392" fill="#FFFFFF"></path>
            <path d="M112.875,44.34375 C112.875,59.9245313 100.237031,72.5625 84.65625,72.5625 C69.0754687,72.5625 56.4375,59.9245313 56.4375,44.34375 C56.4375,28.7629687 69.0754687,16.125 84.65625,16.125 C100.237031,16.125 112.875,28.7629687 112.875,44.34375 L112.875,44.34375 Z M44.34375,88.6875 C44.34375,96.4879687 38.0348437,102.796875 30.234375,102.796875 C22.4339063,102.796875 16.125,96.4879687 16.125,88.6875 C16.125,80.8870313 22.4339063,74.578125 30.234375,74.578125 C38.0348437,74.578125 44.34375,80.8870313 44.34375,88.6875 L44.34375,88.6875 Z M16.125,0 L16.125,88.6875 L16.125,0 Z" id="Stroke-393" stroke="#464A48" stroke-width="3" stroke-linejoin="round"></path>
            <path d="M44.34375,88.6875 L56.4375,42.328125" id="Stroke-394" stroke="#464A48" stroke-width="3" stroke-linecap="round" stroke-linejoin="round"></path>
            <path d="M113,44.34375 L113,0" id="Stroke-395" stroke="#464A48" stroke-width="3" stroke-linejoin="round"></path>
            <path d="M90.703125,44.34375 C90.703125,47.6896875 88.0021875,50.390625 84.65625,50.390625 C81.3103125,50.390625 78.609375,47.6896875 78.609375,44.34375 C78.609375,40.9978125 81.3103125,38.296875 84.65625,38.296875 C88.0021875,38.296875 90.703125,40.9978125 90.703125,44.34375" id="Fill-396" fill="#E9962D"></path>
            <path d="M90.703125,44.34375 C90.703125,47.6896875 88.0021875,50.390625 84.65625,50.390625 C81.3103125,50.390625 78.609375,47.6896875 78.609375,44.34375 C78.609375,40.9978125 81.3103125,38.296875 84.65625,38.296875 C88.0021875,38.296875 90.703125,40.9978125 90.703125,44.34375 L90.703125,44.34375 Z" id="Stroke-397" stroke="#464A48" stroke-width="2" stroke-linejoin="round"></path>
            <path d="M84,44.34375 L84,92.71875" id="Stroke-398" stroke="#464A48" stroke-width="3" stroke-linecap="round" stroke-linejoin="round"></path>
            <polygon id="Fill-399" fill="#84CBCB" points="64.5 112.875 104.8125 112.875 104.8125 92.71875 64.5 92.71875"></polygon>
            <polygon id="Stroke-400" stroke="#464A48" stroke-width="3" points="64.5 112.875 104.8125 112.875 104.8125 92.71875 64.5 92.71875"></polygon>
            <path d="M72.5625,92.71875 L72.5625,98.765625 L72.5625,92.71875 Z M80.625,92.71875 L80.625,98.765625 L80.625,92.71875 Z M88.6875,92.71875 L88.6875,98.765625 L88.6875,92.71875 Z M96.75,92.71875 L96.75,98.765625 L96.75,92.71875 Z M36.28125,88.6875 C36.28125,92.0334375 33.5803125,94.734375 30.234375,94.734375 C26.8884375,94.734375 24.1875,92.0334375 24.1875,88.6875 C24.1875,85.3415625 26.8884375,82.640625 30.234375,82.640625 C33.5803125,82.640625 36.28125,85.3415625 36.28125,88.6875 L36.28125,88.6875 Z" id="Stroke-401" stroke="#464A48" stroke-width="2" stroke-linejoin="round"></path>
        </g>
    </g>
</svg>