<?xml version="1.0" encoding="UTF-8" standalone="no"?>
<svg width="130px" height="130px" viewBox="0 0 130 130" version="1.1" xmlns="http://www.w3.org/2000/svg" xmlns:xlink="http://www.w3.org/1999/xlink">
    <!-- Generator: Sketch 39.1 (31720) - http://www.bohemiancoding.com/sketch -->
    <title>الإختبار والقياس</title>
    <desc>Created with Sketch.</desc>
    <defs></defs>
    <g id="Page-1" stroke="none" stroke-width="1" fill="none" fill-rule="evenodd">
        <g id="الإختبار-والقياس">
            <path d="M73.125,127.96875 C73.125,123.479687 76.7609375,119.84375 81.25,119.84375 C84.8453125,119.84375 87.8515625,122.2 88.928125,125.429688 C94.7375,123.134375 100.120312,120.026562 104.975,116.248438 C104.101562,114.948437 103.59375,113.384375 103.59375,111.71875 C103.59375,107.229687 107.229687,103.59375 111.71875,103.59375 C113.384375,103.59375 114.948438,104.101562 116.248438,104.975 C120.026563,100.120312 123.134375,94.7375 125.429688,88.928125 C122.2,87.8515625 119.84375,84.8453125 119.84375,81.25 C119.84375,76.7609375 123.479687,73.125 127.96875,73.125 C128.476562,73.125 128.964063,73.1859375 129.451563,73.2671875 C129.796875,70.565625 130,67.803125 130,65 C130,62.196875 129.796875,59.434375 129.451563,56.7328125 C128.964063,56.8140625 128.476562,56.875 127.96875,56.875 C123.479687,56.875 119.84375,53.2390625 119.84375,48.75 C119.84375,45.1546875 122.2,42.1484375 125.429688,41.071875 C123.134375,35.2625 120.026563,29.8796875 116.248438,25.025 C114.948438,25.8984375 113.384375,26.40625 111.71875,26.40625 C107.229687,26.40625 103.59375,22.7703125 103.59375,18.28125 C103.59375,16.615625 104.101562,15.0515625 104.975,13.7515625 C100.120312,9.9734375 94.7375,6.865625 88.928125,4.5703125 C87.8515625,7.8 84.8453125,10.15625 81.25,10.15625 C76.7609375,10.15625 73.125,6.5203125 73.125,2.03125 C73.125,1.5234375 73.1859375,1.0359375 73.2671875,0.5484375 C70.565625,0.203125 67.803125,0 65,0 C62.196875,0 59.434375,0.203125 56.7328125,0.5484375 C56.8140625,1.0359375 56.875,1.5234375 56.875,2.03125 C56.875,6.5203125 53.2390625,10.15625 48.75,10.15625 C45.1546875,10.15625 42.1484375,7.8 41.071875,4.5703125 C35.2625,6.865625 29.8796875,9.9734375 25.025,13.7515625 C25.8984375,15.0515625 26.40625,16.615625 26.40625,18.28125 C26.40625,22.7703125 22.7703125,26.40625 18.28125,26.40625 C16.615625,26.40625 15.0515625,25.8984375 13.7515625,25.025 C9.9734375,29.8796875 6.865625,35.2625 4.5703125,41.071875 C7.8,42.1484375 10.15625,45.1546875 10.15625,48.75 C10.15625,53.2390625 6.5203125,56.875 2.03125,56.875 C1.5234375,56.875 1.0359375,56.8140625 0.5484375,56.7328125 C0.203125,59.434375 0,62.196875 0,65 C0,67.803125 0.203125,70.565625 0.5484375,73.2671875 C1.0359375,73.1859375 1.5234375,73.125 2.03125,73.125 C6.5203125,73.125 10.15625,76.7609375 10.15625,81.25 C10.15625,84.8453125 7.8,87.8515625 4.5703125,88.928125 C6.865625,94.7375 9.9734375,100.120312 13.7515625,104.975 C15.0515625,104.101562 16.615625,103.59375 18.28125,103.59375 C22.7703125,103.59375 26.40625,107.229687 26.40625,111.71875 C26.40625,113.384375 25.8984375,114.948437 25.025,116.248438 C29.8796875,120.026562 35.2625,123.134375 41.071875,125.429688 C42.1484375,122.2 45.1546875,119.84375 48.75,119.84375 C53.2390625,119.84375 56.875,123.479687 56.875,127.96875 C56.875,128.476562 56.8140625,128.964063 56.7328125,129.451563 C59.434375,129.796875 62.196875,130 65,130 C67.803125,130 70.565625,129.796875 73.2671875,129.451563 C73.1859375,128.964063 73.125,128.476562 73.125,127.96875" id="Fill-1490" fill="#CBCBCB"></path>
            <path d="M42.65625,105.625 C32.5609375,105.625 24.375,97.4390625 24.375,87.34375 C24.375,77.2484375 32.5609375,69.0625 42.65625,69.0625 C52.7515625,69.0625 60.9375,77.2484375 60.9375,87.34375 C60.9375,97.4390625 52.7515625,105.625 42.65625,105.625 L42.65625,105.625 Z M77.1875,87.34375 C77.1875,84.1546875 79.6453125,81.5546875 82.7734375,81.3109375 C81.778125,74.6078125 79.178125,68.4734375 75.3390625,63.2734375 C74.221875,64.3296875 72.7390625,65 71.09375,65 C67.721875,65 65,62.278125 65,58.90625 C65,57.2609375 65.6703125,55.778125 66.7265625,54.6609375 C61.5265625,50.821875 55.3921875,48.221875 48.6890625,47.2265625 C48.4453125,50.3546875 45.8453125,52.8125 42.65625,52.8125 C39.4671875,52.8125 36.8671875,50.3546875 36.6234375,47.2265625 C29.9203125,48.221875 23.7859375,50.821875 18.5859375,54.6609375 C19.6421875,55.778125 20.3125,57.2609375 20.3125,58.90625 C20.3125,62.278125 17.590625,65 14.21875,65 C12.5734375,65 11.090625,64.3296875 9.9734375,63.2734375 C6.134375,68.4734375 3.534375,74.6078125 2.5390625,81.3109375 C5.6671875,81.5546875 8.125,84.1546875 8.125,87.34375 C8.125,90.5328125 5.6671875,93.1328125 2.5390625,93.3765625 C3.534375,100.079687 6.134375,106.214062 9.9734375,111.414062 C11.090625,110.357812 12.5734375,109.6875 14.21875,109.6875 C17.590625,109.6875 20.3125,112.409375 20.3125,115.78125 C20.3125,117.426562 19.6421875,118.909375 18.5859375,120.026562 C23.7859375,123.865625 29.9203125,126.465625 36.6234375,127.460937 C36.8671875,124.332812 39.4671875,121.875 42.65625,121.875 C45.8453125,121.875 48.4453125,124.332812 48.6890625,127.460937 C55.3921875,126.465625 61.5265625,123.865625 66.7265625,120.026562 C65.6703125,118.909375 65,117.426562 65,115.78125 C65,112.409375 67.721875,109.6875 71.09375,109.6875 C72.7390625,109.6875 74.221875,110.357812 75.3390625,111.414062 C79.178125,106.214062 81.778125,100.079687 82.7734375,93.3765625 C79.6453125,93.1328125 77.1875,90.5328125 77.1875,87.34375 L77.1875,87.34375 Z" id="Fill-1491" fill="#F7C06A"></path>
            <path d="M77.1875,87.34375 C77.1875,84.1546875 79.6453125,81.5546875 82.7734375,81.3109375 C81.778125,74.6078125 79.178125,68.4734375 75.3390625,63.2734375 C74.221875,64.3296875 72.7390625,65 71.09375,65 C67.721875,65 65,62.278125 65,58.90625 C65,57.2609375 65.6703125,55.778125 66.7265625,54.6609375 C61.5265625,50.821875 55.3921875,48.221875 48.6890625,47.2265625 C48.4453125,50.3546875 45.8453125,52.8125 42.65625,52.8125 C39.4671875,52.8125 36.8671875,50.3546875 36.6234375,47.2265625 C29.9203125,48.221875 23.7859375,50.821875 18.5859375,54.6609375 C19.6421875,55.778125 20.3125,57.2609375 20.3125,58.90625 C20.3125,62.278125 17.590625,65 14.21875,65 C12.5734375,65 11.090625,64.3296875 9.9734375,63.2734375 C6.134375,68.4734375 3.534375,74.6078125 2.5390625,81.3109375 C5.6671875,81.5546875 8.125,84.1546875 8.125,87.34375 C8.125,90.5328125 5.6671875,93.1328125 2.5390625,93.3765625 C3.534375,100.079687 6.134375,106.214062 9.9734375,111.414062 C11.090625,110.357812 12.5734375,109.6875 14.21875,109.6875 C17.590625,109.6875 20.3125,112.409375 20.3125,115.78125 C20.3125,117.426562 19.6421875,118.909375 18.5859375,120.026562 C23.7859375,123.865625 29.9203125,126.465625 36.6234375,127.460937 C36.8671875,124.332812 39.4671875,121.875 42.65625,121.875 C45.8453125,121.875 48.4453125,124.332812 48.6890625,127.460937 C55.3921875,126.465625 61.5265625,123.865625 66.7265625,120.026562 C65.6703125,118.909375 65,117.426562 65,115.78125 C65,112.409375 67.721875,109.6875 71.09375,109.6875 C72.7390625,109.6875 74.221875,110.357812 75.3390625,111.414062 C79.178125,106.214062 81.778125,100.079687 82.7734375,93.3765625 C79.6453125,93.1328125 77.1875,90.5328125 77.1875,87.34375 L77.1875,87.34375 Z" id="Stroke-1492" stroke="#464A48" stroke-width="3"></path>
            <path d="M60.9375,87.34375 C60.9375,97.4390625 52.7515625,105.625 42.65625,105.625 C32.5609375,105.625 24.375,97.4390625 24.375,87.34375 C24.375,77.2484375 32.5609375,69.0625 42.65625,69.0625 C52.7515625,69.0625 60.9375,77.2484375 60.9375,87.34375" id="Fill-1493" fill="#FFFFFF"></path>
            <path d="M50.78125,87.34375 C50.78125,91.8328125 47.1453125,95.46875 42.65625,95.46875 C38.1671875,95.46875 34.53125,91.8328125 34.53125,87.34375 C34.53125,82.8546875 38.1671875,79.21875 42.65625,79.21875 C47.1453125,79.21875 50.78125,82.8546875 50.78125,87.34375" id="Fill-1494" fill="#84CBCB"></path>
            <path d="M60.9375,87.34375 C60.9375,97.4390625 52.7515625,105.625 42.65625,105.625 C32.5609375,105.625 24.375,97.4390625 24.375,87.34375 C24.375,77.2484375 32.5609375,69.0625 42.65625,69.0625 C52.7515625,69.0625 60.9375,77.2484375 60.9375,87.34375 L60.9375,87.34375 Z" id="Stroke-1495" stroke="#464A48" stroke-width="2" stroke-linejoin="round"></path>
            <path d="M121.875,32.5 C121.875,29.3515625 124.292188,26.771875 127.359375,26.4671875 C126.567187,22.465625 124.982813,18.7484375 122.76875,15.478125 C121.895313,15.9453125 120.920313,16.25 119.84375,16.25 C116.471875,16.25 113.75,13.528125 113.75,10.15625 C113.75,9.0796875 114.054688,8.1046875 114.521875,7.23125 C111.251562,5.0171875 107.534375,3.4328125 103.532813,2.640625 C103.228125,5.7078125 100.648438,8.125 97.5,8.125 C94.3515625,8.125 91.771875,5.7078125 91.4671875,2.640625 C87.465625,3.4328125 83.7484375,5.0171875 80.478125,7.23125 C80.9453125,8.1046875 81.25,9.0796875 81.25,10.15625 C81.25,13.528125 78.528125,16.25 75.15625,16.25 C74.0796875,16.25 73.1046875,15.9453125 72.23125,15.478125 C70.0171875,18.7484375 68.4328125,22.465625 67.640625,26.4671875 C70.7078125,26.771875 73.125,29.3515625 73.125,32.5 C73.125,35.6484375 70.7078125,38.228125 67.640625,38.5328125 C68.4328125,42.534375 70.0171875,46.2515625 72.23125,49.521875 C73.1046875,49.0546875 74.0796875,48.75 75.15625,48.75 C78.528125,48.75 81.25,51.471875 81.25,54.84375 C81.25,55.9203125 80.9453125,56.8953125 80.478125,57.76875 C83.7484375,59.9828125 87.465625,61.5671875 91.4671875,62.359375 C91.771875,59.2921875 94.3515625,56.875 97.5,56.875 C100.648438,56.875 103.228125,59.2921875 103.532813,62.359375 C107.534375,61.5671875 111.251562,59.9828125 114.521875,57.76875 C114.054688,56.8953125 113.75,55.9203125 113.75,54.84375 C113.75,51.471875 116.471875,48.75 119.84375,48.75 C120.920313,48.75 121.895313,49.0546875 122.76875,49.521875 C124.982813,46.2515625 126.567187,42.534375 127.359375,38.5328125 C124.292188,38.228125 121.875,35.6484375 121.875,32.5" id="Fill-1496" fill="#FFFFFF"></path>
            <path d="M121.875,32.5 C121.875,29.3515625 124.292188,26.771875 127.359375,26.4671875 C126.567187,22.465625 124.982813,18.7484375 122.76875,15.478125 C121.895313,15.9453125 120.920313,16.25 119.84375,16.25 C116.471875,16.25 113.75,13.528125 113.75,10.15625 C113.75,9.0796875 114.054688,8.1046875 114.521875,7.23125 C111.251562,5.0171875 107.534375,3.4328125 103.532813,2.640625 C103.228125,5.7078125 100.648438,8.125 97.5,8.125 C94.3515625,8.125 91.771875,5.7078125 91.4671875,2.640625 C87.465625,3.4328125 83.7484375,5.0171875 80.478125,7.23125 C80.9453125,8.1046875 81.25,9.0796875 81.25,10.15625 C81.25,13.528125 78.528125,16.25 75.15625,16.25 C74.0796875,16.25 73.1046875,15.9453125 72.23125,15.478125 C70.0171875,18.7484375 68.4328125,22.465625 67.640625,26.4671875 C70.7078125,26.771875 73.125,29.3515625 73.125,32.5 C73.125,35.6484375 70.7078125,38.228125 67.640625,38.5328125 C68.4328125,42.534375 70.0171875,46.2515625 72.23125,49.521875 C73.1046875,49.0546875 74.0796875,48.75 75.15625,48.75 C78.528125,48.75 81.25,51.471875 81.25,54.84375 C81.25,55.9203125 80.9453125,56.8953125 80.478125,57.76875 C83.7484375,59.9828125 87.465625,61.5671875 91.4671875,62.359375 C91.771875,59.2921875 94.3515625,56.875 97.5,56.875 C100.648438,56.875 103.228125,59.2921875 103.532813,62.359375 C107.534375,61.5671875 111.251562,59.9828125 114.521875,57.76875 C114.054688,56.8953125 113.75,55.9203125 113.75,54.84375 C113.75,51.471875 116.471875,48.75 119.84375,48.75 C120.920313,48.75 121.895313,49.0546875 122.76875,49.521875 C124.982813,46.2515625 126.567187,42.534375 127.359375,38.5328125 C124.292188,38.228125 121.875,35.6484375 121.875,32.5 L121.875,32.5 Z" id="Stroke-1497" stroke="#464A48" stroke-width="3"></path>
            <path d="M115.78125,32.5 C115.78125,42.5953125 107.595313,50.78125 97.5,50.78125 C87.4046875,50.78125 79.21875,42.5953125 79.21875,32.5 C79.21875,22.4046875 87.4046875,14.21875 97.5,14.21875 C107.595313,14.21875 115.78125,22.4046875 115.78125,32.5" id="Fill-1498" fill="#E9962D"></path>
            <path d="M105.625,32.5 C105.625,36.9890625 101.989063,40.625 97.5,40.625 C93.0109375,40.625 89.375,36.9890625 89.375,32.5 C89.375,28.0109375 93.0109375,24.375 97.5,24.375 C101.989063,24.375 105.625,28.0109375 105.625,32.5 L105.625,32.5 Z" id="Stroke-1499" stroke="#464A48" stroke-width="3" stroke-linejoin="round"></path>
        </g>
    </g>
</svg>