<?xml version="1.0" encoding="UTF-8" standalone="no"?>
<svg width="136px" height="136px" viewBox="0 0 136 136" version="1.1" xmlns="http://www.w3.org/2000/svg" xmlns:xlink="http://www.w3.org/1999/xlink">
    <!-- Generator: Sketch 39.1 (31720) - http://www.bohemiancoding.com/sketch -->
    <title>طبيعة العلامة التجارية ومنتجاتها</title>
    <desc>Created with Sketch.</desc>
    <defs></defs>
    <g id="Page-1" stroke="none" stroke-width="1" fill="none" fill-rule="evenodd">
        <g id="طبيعة-العلامة-التجارية-ومنتجاتها" transform="translate(2.000000, 0.000000)">
            <path d="M40.4126984,136 L40.4126984,110.5 C40.4126984,89.25 23.3968254,71.39575 23.3968254,46.75 C23.3968254,22.10425 47.6444444,0 72.3174603,0 C96.9904762,0 121.238095,22.10425 121.238095,46.75 L134,78.625 L121.238095,78.625 L121.238095,97.75 C121.238095,104.790125 115.516508,110.5 108.47619,110.5 L91.4603175,110.5 L91.4603175,136" id="Fill-256" fill="#E9962D"></path>
            <polyline id="Fill-257" fill="#FFFFFF" points="46.7936508 85 0 31.875 17.015873 14.875 76.5714286 14.875 93.5873016 31.875 46.7936508 85"></polyline>
            <path d="M46.7936508,85 L0,31.875 L17.015873,14.875 L76.5714286,14.875 L93.5873016,31.875 L46.7936508,85 L46.7936508,85 Z M0,31.875 L93.5873016,31.875 L0,31.875 Z M17.015873,14.875 L31.9047619,31.875 L17.015873,14.875 Z M31.9047619,31.875 L46.7936508,14.875 L31.9047619,31.875 Z M46.7936508,14.875 L61.6825397,31.875 L46.7936508,14.875 Z M61.6825397,31.875 L76.5714286,14.875 L61.6825397,31.875 Z M31.9047619,31.875 L46.7936508,85 L31.9047619,31.875 Z M46.7936508,85 L61.6825397,31.875 L46.7936508,85 Z" id="Stroke-258" stroke="#464A48" stroke-width="3" stroke-linejoin="round"></path>
        </g>
    </g>
</svg>