<?xml version="1.0" encoding="UTF-8" standalone="no"?>
<svg width="133px" height="133px" viewBox="0 0 133 133" version="1.1" xmlns="http://www.w3.org/2000/svg" xmlns:xlink="http://www.w3.org/1999/xlink">
    <!-- Generator: Sketch 39.1 (31720) - http://www.bohemiancoding.com/sketch -->
    <title>غاية المحتوى</title>
    <desc>Created with Sketch.</desc>
    <defs></defs>
    <g id="Page-1" stroke="none" stroke-width="1" fill="none" fill-rule="evenodd">
        <g id="غاية-المحتوى">
            <path d="M133,66.5 C133,103.226703 103.220469,133 66.5,133 C29.7795312,133 0,103.226703 0,66.5 C0,29.7732969 29.7795312,0 66.5,0 C103.220469,0 133,29.7732969 133,66.5" id="Fill-196" fill="#E9962D"></path>
            <path d="M33.25,133 L33.25,116.375 C33.25,95.59375 16.625,78.1333437 16.625,54.03125 C16.625,29.9291563 36.159375,10.390625 60.265625,10.390625 C84.371875,10.390625 103.90625,29.9291563 103.90625,54.03125 L116.375,85.203125 L103.90625,85.203125 L103.90625,103.90625 C103.90625,110.791078 98.3160937,116.375 91.4375,116.375 L78.96875,116.375 L78.96875,133" id="Fill-197" fill="#FFFFFF"></path>
            <path d="M78.96875,116.375 L72.734375,116.375" id="Stroke-198" stroke="#464A48" stroke-width="2"></path>
            <path d="M91.4375,54.03125 C91.4375,71.2464375 77.4725,85.203125 60.265625,85.203125 C43.05875,85.203125 29.09375,71.2464375 29.09375,54.03125 C29.09375,36.8160625 43.05875,22.859375 60.265625,22.859375 C77.4725,22.859375 91.4375,36.8160625 91.4375,54.03125" id="Fill-199" fill="#84CBCB"></path>
            <path d="M33.25,133 L33.25,116.375 C33.25,95.59375 16.625,78.1333437 16.625,54.03125 M43.640625,54.03125 C33.3123438,54.03125 24.9375,45.6584844 24.9375,35.328125 C24.9375,32.3418594 25.76875,29.5197656 27.015625,27.015625 C33.25,16.625 47.464375,10.390625 60.265625,10.390625 C84.371875,10.390625 103.90625,29.9291563 103.90625,54.03125 L116.375,85.203125 L103.90625,85.203125 L103.90625,103.90625 C103.90625,110.791078 98.3160937,116.375 91.4375,116.375 L78.96875,116.375 L78.96875,133 M43.640625,54.03125 L76.890625,54.03125 M68.578125,62.34375 L76.890625,54.03125 L68.578125,45.71875 M62.34375,45.71875 L58.1875,45.71875 M54.03125,45.71875 L49.875,45.71875 M54.03125,62.34375 L49.875,62.34375 M62.34375,62.34375 L58.1875,62.34375" id="Stroke-200" stroke="#464A48" stroke-width="3" stroke-linejoin="round"></path>
        </g>
    </g>
</svg>