<?xml version="1.0" encoding="UTF-8" standalone="no"?>
<svg width="124px" height="136px" viewBox="0 0 124 136" version="1.1" xmlns="http://www.w3.org/2000/svg" xmlns:xlink="http://www.w3.org/1999/xlink">
    <!-- Generator: Sketch 39.1 (31720) - http://www.bohemiancoding.com/sketch -->
    <title>إختيار الكلمات المفتاحية</title>
    <desc>Created with Sketch.</desc>
    <defs></defs>
    <g id="Page-1" stroke="none" stroke-width="1" fill="none" fill-rule="evenodd">
        <g id="إختيار-الكلمات-المفتاحية" transform="translate(2.000000, 3.000000)">
            <polyline id="Fill-2124" fill="#FFFFFF" points="71.5222222 129.762712 0 129.762712 0 8.94915254 8.94027778 0 17.8805556 8.94915254 26.8208333 0 35.7611111 8.94915254 44.7013889 0 53.6416667 8.94915254 62.5819444 0 71.5222222 8.94915254 80.4625 0 89.4027778 8.94915254 89.4027778 111.864407"></polyline>
            <polyline id="Fill-2125" fill="#B2DDDD" points="71.5222222 129.762712 71.5222222 111.864407 89.4027778 111.864407 71.5222222 129.762712"></polyline>
            <polygon id="Stroke-2126" stroke="#464A48" stroke-width="3" points="89.4027778 111.864407 71.5222222 129.762712 0 129.762712 0 8.94915254 8.94027778 0 17.8805556 8.94915254 26.8208333 0 35.7611111 8.94915254 44.7013889 0 53.6416667 8.94915254 62.5819444 0 71.5222222 8.94915254 80.4625 0 89.4027778 8.94915254"></polygon>
            <polygon id="Path" stroke="#464A48" stroke-width="2" points="71.5222222 129.762712 71.5222222 111.864407 89.4027778 111.864407"></polygon>
            <path d="M26.8208333,35.7966102 C26.8208333,40.7410169 22.820059,44.7457627 17.8805556,44.7457627 C12.9410521,44.7457627 8.94027778,40.7410169 8.94027778,35.7966102 C8.94027778,30.8522034 12.9410521,26.8474576 17.8805556,26.8474576 C22.820059,26.8474576 26.8208333,30.8522034 26.8208333,35.7966102" id="Fill-2127" fill="#F4B25A"></path>
            <polyline id="Stroke-2128" stroke="#464A48" stroke-width="2" points="26.8208333 29.0847458 17.8805556 38.0338983 13.4104167 33.559322"></polyline>
            <path d="M26.8208333,62.6440678 C26.8208333,67.5884746 22.820059,71.5932203 17.8805556,71.5932203 C12.9410521,71.5932203 8.94027778,67.5884746 8.94027778,62.6440678 C8.94027778,57.699661 12.9410521,53.6949153 17.8805556,53.6949153 C22.820059,53.6949153 26.8208333,57.699661 26.8208333,62.6440678" id="Fill-2129" fill="#F4B25A"></path>
            <polyline id="Stroke-2130" stroke="#464A48" stroke-width="2" points="26.8208333 55.9322034 17.8805556 64.8813559 13.4104167 60.4067797"></polyline>
            <path d="M26.8208333,89.4915254 C26.8208333,94.4359322 22.820059,98.440678 17.8805556,98.440678 C12.9410521,98.440678 8.94027778,94.4359322 8.94027778,89.4915254 C8.94027778,84.5471186 12.9410521,80.5423729 17.8805556,80.5423729 C22.820059,80.5423729 26.8208333,84.5471186 26.8208333,89.4915254" id="Fill-2131" fill="#F4B25A"></path>
            <path d="M26.8208333,82.779661 L17.8805556,91.7288136 L13.4104167,87.2542373 M37.9961806,31.3220339 L78.2274306,31.3220339 M37.9961806,40.2711864 L64.8170139,40.2711864 M37.9961806,58.1694915 L78.2274306,58.1694915 M37.9961806,67.1186441 L55.8767361,67.1186441 M37.9961806,85.0169492 L78.2274306,85.0169492 M37.9961806,93.9661017 L51.4065972,93.9661017 M55.8767361,93.9661017 L69.2871528,93.9661017" id="Stroke-2132" stroke="#464A48" stroke-width="2"></path>
            <polygon id="Fill-2133" fill="#F4B25A" points="102.813194 107.389831 120.69375 107.389831 120.69375 17.8983051 102.813194 17.8983051"></polygon>
            <polyline id="Fill-2134" fill="#FFFFFF" points="120.69375 107.389831 120.69375 118.576271 111.753472 127.525424 102.813194 118.576271 102.813194 107.389831"></polyline>
            <path d="M102.813194,107.389831 L102.813194,17.8983051 L102.813194,107.389831 Z M120.69375,17.8983051 L120.69375,107.389831 L120.69375,17.8983051 Z M111.753472,127.525424 L111.753472,132 L111.753472,127.525424 Z M111.753472,17.8983051 L111.753472,107.389831 L111.753472,17.8983051 Z M102.813194,107.389831 L120.69375,107.389831 L120.69375,118.576271 L111.753472,127.525424 L102.813194,118.576271 L102.813194,107.389831 L102.813194,107.389831 Z" id="Stroke-2135" stroke="#464A48" stroke-width="2"></path>
            <path d="M102.813194,6.71186441 C102.813194,2.9979661 105.808188,0 109.518403,0 L113.988542,0 C117.698757,0 120.69375,2.9979661 120.69375,6.71186441 L120.69375,17.8983051 L102.813194,17.8983051 L102.813194,6.71186441" id="Fill-2136" fill="#FFFFFF"></path>
            <path d="M102.813194,6.71186441 C102.813194,2.9979661 105.808188,0 109.518403,0 L113.988542,0 C117.698757,0 120.69375,2.9979661 120.69375,6.71186441 L120.69375,17.8983051 L102.813194,17.8983051 L102.813194,6.71186441 L102.813194,6.71186441 Z" id="Stroke-2137" stroke="#464A48" stroke-width="2"></path>
        </g>
    </g>
</svg>