<?xml version="1.0" encoding="UTF-8" standalone="no"?>
<svg width="141px" height="105px" viewBox="0 0 141 105" version="1.1" xmlns="http://www.w3.org/2000/svg" xmlns:xlink="http://www.w3.org/1999/xlink">
    <!-- Generator: Sketch 39.1 (31720) - http://www.bohemiancoding.com/sketch -->
    <title>محتوى مرن</title>
    <desc>Created with Sketch.</desc>
    <defs></defs>
    <g id="Page-1" stroke="none" stroke-width="1" fill="none" fill-rule="evenodd">
        <g id="محتوى-مرن" transform="translate(0.000000, 2.000000)">
            <polygon id="Fill-2039" fill="#FFFFFF" points="11.015625 101 129.984375 101 129.984375 0 11.015625 0"></polygon>
            <path d="M11.015625,101 L129.984375,101 L129.984375,0 L11.015625,0 L11.015625,101 Z M11.015625,17.5652174 L129.984375,17.5652174 L11.015625,17.5652174 Z M17.625,8.7826087 L22.03125,8.7826087 L17.625,8.7826087 Z M26.4375,8.7826087 L30.84375,8.7826087 L26.4375,8.7826087 Z M35.25,8.7826087 L39.65625,8.7826087 L35.25,8.7826087 Z M46.265625,0 L46.265625,17.5652174 L46.265625,0 Z M52.875,8.7826087 L123.375,8.7826087 L52.875,8.7826087 Z M0,101 L141,101 L0,101 Z" id="Stroke-2040" stroke="#464A48" stroke-width="3"></path>
            <polygon id="Fill-2041" fill="#F4B25A" points="24.234375 52.6956522 46.265625 52.6956522 46.265625 30.7391304 24.234375 30.7391304"></polygon>
            <polygon id="Stroke-2042" stroke="#464A48" stroke-width="3" points="24.234375 52.6956522 46.265625 52.6956522 46.265625 30.7391304 24.234375 30.7391304"></polygon>
            <polygon id="Fill-2043" fill="#77C6C6" points="52.875 54.8913043 118.96875 54.8913043 118.96875 28.5434783 52.875 28.5434783"></polygon>
            <path d="M22.03125,87.826087 L88.125,87.826087 M22.03125,79.0434783 L88.125,79.0434783 M22.03125,70.2608696 L88.125,70.2608696 M22.03125,61.4782609 L88.125,61.4782609" id="Stroke-2044" stroke="#464A48" stroke-width="2"></path>
            <polygon id="Fill-2045" fill="#E5842D" points="92.53125 90.0217391 118.96875 90.0217391 118.96875 59.2826087 92.53125 59.2826087"></polygon>
            <path d="M74.90625,41.7173913 L79.3125,41.7173913 M83.71875,41.7173913 L88.125,41.7173913 M92.53125,41.7173913 L96.9375,41.7173913" id="Stroke-2046" stroke="#464A48" stroke-width="2"></path>
        </g>
    </g>
</svg>