<svg id="fcb916a5-b428-48fb-8e38-4261fa7d3d8d" data-name="Content" xmlns="http://www.w3.org/2000/svg" viewBox="0 0 160 160">
  <defs>
    <style>
      .bbc2252e-8141-40e6-a39f-d899f47d83f0 {
        fill: #7b79ff;
      }

      .ffb97774-4503-447b-8896-015473659976 {
        fill: #fff;
      }
    </style>
  </defs>
  <g>
    <circle class="bbc2252e-8141-40e6-a39f-d899f47d83f0" cx="80" cy="80" r="80"/>
    <g>
      <path class="ffb97774-4503-447b-8896-015473659976" d="M43.67325,118.63739a24.1341,24.1341,0,0,0,32.82056-1.4368L88.836,104.85836a5.96214,5.96214,0,0,0,0-8.43172l0,0h0a5.96218,5.96218,0,0,0-8.43177,0L67.9648,108.86605a12.11813,12.11813,0,0,1-16.73107.53574,11.93934,11.93934,0,0,1-.64694-16.87238q.1502-.16218.30633-.31872L63.5408,79.56306a5.96218,5.96218,0,0,0,0-8.43176h0a5.96214,5.96214,0,0,0-8.43172,0l0,0L42.46143,83.77893a23.91169,23.91169,0,0,0,.09439,33.81611Q43.09774,118.13395,43.67325,118.63739Z"/>
      <rect class="ffb97774-4503-447b-8896-015473659976" x="59.11516" y="74.02248" width="41.73505" height="11.9243" rx="5.96215" transform="translate(-33.13129 79.98322) rotate(-44.99998)"/>
      <path class="ffb97774-4503-447b-8896-015473659976" d="M118.13507,43.1187A23.91,23.91,0,0,0,84.34249,41.919q-.28721.26751-.56551.54435L71.12935,55.111a5.96214,5.96214,0,0,0,0,8.43175h0a5.96213,5.96213,0,0,0,8.43172,0l0,0L92.00226,51.10157a12.1162,12.1162,0,0,1,16.74061-.52371,11.93577,11.93577,0,0,1,.63045,16.868q-.14767.15915-.30108.31284L96.42461,80.40624a5.96214,5.96214,0,0,0,0,8.43172l0,0h0a5.96214,5.96214,0,0,0,8.43175,0v0L117.19645,76.4979A24.13537,24.13537,0,0,0,118.13507,43.1187Z"/>
    </g>
  </g>
</svg>
