<?xml version="1.0" encoding="UTF-8" standalone="no"?>
<svg width="135px" height="109px" viewBox="0 0 135 109" version="1.1" xmlns="http://www.w3.org/2000/svg" xmlns:xlink="http://www.w3.org/1999/xlink">
    <!-- Generator: Sketch 39.1 (31720) - http://www.bohemiancoding.com/sketch -->
    <title>التطوير</title>
    <desc>Created with Sketch.</desc>
    <defs></defs>
    <g id="Page-1" stroke="none" stroke-width="1" fill="none" fill-rule="evenodd">
        <g id="التطوير" transform="translate(2.000000, 2.000000)">
            <polygon id="Fill-3563" fill="#FFFFFF" points="59.1612903 105.428571 76.0645161 105.428571 76.0645161 88.56 59.1612903 88.56"></polygon>
            <path d="M126.774194,6.32571429 C126.774194,2.82548571 123.942903,0 120.435484,0 L14.7903226,0 C11.2829032,0 8.4516129,2.82548571 8.4516129,6.32571429 L8.4516129,82.2342857 C8.4516129,85.7345143 11.2829032,88.56 14.7903226,88.56 L120.435484,88.56 C123.942903,88.56 126.774194,85.7345143 126.774194,82.2342857 L126.774194,6.32571429" id="Fill-3564" fill="#FFFFFF"></path>
            <path d="M126.774194,6.32571429 C126.774194,2.82548571 123.942903,0 120.435484,0 L14.7903226,0 C11.2829032,0 8.4516129,2.82548571 8.4516129,6.32571429 L8.4516129,82.2342857 C8.4516129,85.7345143 11.2829032,88.56 14.7903226,88.56 L120.435484,88.56 C123.942903,88.56 126.774194,85.7345143 126.774194,82.2342857 L126.774194,6.32571429 L126.774194,6.32571429 Z M76.0645161,88.56 L76.0645161,105.428571 L76.0645161,88.56 Z M59.1612903,105.428571 L59.1612903,88.56 L59.1612903,105.428571 Z M52.8225806,105.428571 L82.4032258,105.428571 L52.8225806,105.428571 Z M8.4516129,71.6914286 L126.774194,71.6914286 L8.4516129,71.6914286 Z M65.5,80.1257143 L69.7258065,80.1257143 L65.5,80.1257143 Z" id="Stroke-3565" stroke="#464A48" stroke-width="3"></path>
            <polygon id="Fill-3566" fill="#77C6C6" points="14.7903226 65.3657143 120.435484 65.3657143 120.435484 6.32571429 14.7903226 6.32571429"></polygon>
            <polygon id="Fill-3567" fill="#B2DDDD" points="19.016129 23.1942857 40.1451613 23.1942857 40.1451613 10.5428571 19.016129 10.5428571"></polygon>
            <polygon id="Fill-3568" fill="#B2DDDD" points="19.016129 61.1485714 40.1451613 61.1485714 40.1451613 27.4114286 19.016129 27.4114286"></polygon>
            <polygon id="Fill-3569" fill="#B2DDDD" points="44.3709677 23.1942857 65.5 23.1942857 65.5 10.5428571 44.3709677 10.5428571"></polygon>
            <polygon id="Fill-3570" fill="#B2DDDD" points="44.3709677 61.1485714 65.5 61.1485714 65.5 27.4114286 44.3709677 27.4114286"></polygon>
            <polygon id="Fill-3571" fill="#B2DDDD" points="69.7258065 23.1942857 90.8548387 23.1942857 90.8548387 10.5428571 69.7258065 10.5428571"></polygon>
            <polygon id="Fill-3572" fill="#B2DDDD" points="69.7258065 61.1485714 90.8548387 61.1485714 90.8548387 27.4114286 69.7258065 27.4114286"></polygon>
            <polygon id="Fill-3573" fill="#B2DDDD" points="95.0806452 23.1942857 116.209677 23.1942857 116.209677 10.5428571 95.0806452 10.5428571"></polygon>
            <polygon id="Fill-3574" fill="#B2DDDD" points="95.0806452 61.1485714 116.209677 61.1485714 116.209677 27.4114286 95.0806452 27.4114286"></polygon>
            <path d="M46.483871,101.211429 C46.483871,103.530857 44.5822581,105.428571 42.2580645,105.428571 L4.22580645,105.428571 C1.9016129,105.428571 0,103.530857 0,101.211429 L0,42.1714286 C0,39.852 1.9016129,37.9542857 4.22580645,37.9542857 L42.2580645,37.9542857 C44.5822581,37.9542857 46.483871,39.852 46.483871,42.1714286 L46.483871,101.211429" id="Fill-3575" fill="#FFFFFF"></path>
            <path d="M46.483871,101.211429 C46.483871,103.530857 44.5822581,105.428571 42.2580645,105.428571 L4.22580645,105.428571 C1.9016129,105.428571 0,103.530857 0,101.211429 L0,42.1714286 C0,39.852 1.9016129,37.9542857 4.22580645,37.9542857 L42.2580645,37.9542857 C44.5822581,37.9542857 46.483871,39.852 46.483871,42.1714286 L46.483871,101.211429 L46.483871,101.211429 Z M27.4677419,96.9942857 L19.016129,96.9942857 L27.4677419,96.9942857 Z" id="Stroke-3576" stroke="#464A48" stroke-width="3"></path>
            <polygon id="Fill-3577" fill="#77C6C6" points="6.33870968 52.7142857 19.016129 52.7142857 19.016129 44.28 6.33870968 44.28"></polygon>
            <polygon id="Fill-3578" fill="#77C6C6" points="6.33870968 90.6685714 19.016129 90.6685714 19.016129 56.9314286 6.33870968 56.9314286"></polygon>
            <polygon id="Fill-3579" fill="#77C6C6" points="23.2419355 52.7142857 40.1451613 52.7142857 40.1451613 44.28 23.2419355 44.28"></polygon>
            <polygon id="Fill-3580" fill="#77C6C6" points="23.2419355 90.6685714 40.1451613 90.6685714 40.1451613 56.9314286 23.2419355 56.9314286"></polygon>
            <path d="M131,101.211429 C131,103.530857 129.098387,105.428571 126.774194,105.428571 L105.645161,105.428571 C103.320968,105.428571 101.419355,103.530857 101.419355,101.211429 L101.419355,59.04 C101.419355,56.7205714 103.320968,54.8228571 105.645161,54.8228571 L126.774194,54.8228571 C129.098387,54.8228571 131,56.7205714 131,59.04 L131,101.211429" id="Fill-3581" fill="#FFFFFF"></path>
            <path d="M131,101.211429 C131,103.530857 129.098387,105.428571 126.774194,105.428571 L105.645161,105.428571 C103.320968,105.428571 101.419355,103.530857 101.419355,101.211429 L101.419355,59.04 C101.419355,56.7205714 103.320968,54.8228571 105.645161,54.8228571 L126.774194,54.8228571 C129.098387,54.8228571 131,56.7205714 131,59.04 L131,101.211429 L131,101.211429 Z" id="Stroke-3582" stroke="#464A48" stroke-width="3"></path>
            <polygon id="Fill-3583" fill="#77C6C6" points="107.758065 73.8 124.66129 73.8 124.66129 61.1485714 107.758065 61.1485714"></polygon>
            <polygon id="Fill-3584" fill="#77C6C6" points="107.758065 82.2342857 124.66129 82.2342857 124.66129 78.0171429 107.758065 78.0171429"></polygon>
            <polygon id="Fill-3585" fill="#77C6C6" points="107.758065 90.6685714 124.66129 90.6685714 124.66129 86.4514286 107.758065 86.4514286"></polygon>
            <path d="M118.322581,96.9942857 L114.096774,96.9942857" id="Stroke-3586" stroke="#464A48" stroke-width="2"></path>
        </g>
    </g>
</svg>