<?xml version="1.0" encoding="UTF-8" standalone="no"?>
<svg width="131px" height="135px" viewBox="0 0 131 135" version="1.1" xmlns="http://www.w3.org/2000/svg" xmlns:xlink="http://www.w3.org/1999/xlink">
    <!-- Generator: Sketch 39.1 (31720) - http://www.bohemiancoding.com/sketch -->
    <title>تطوير أكواد الواجهة النهائية</title>
    <desc>Created with Sketch.</desc>
    <defs></defs>
    <g id="Page-1" stroke="none" stroke-width="1" fill="none" fill-rule="evenodd">
        <g id="تطوير-أكواد-الواجهة-النهائية" transform="translate(2.000000, 2.000000)">
            <path d="M110.066667,65.5 C110.066667,91.1717742 89.2175,111.983871 63.5,111.983871 C37.7825,111.983871 16.9333333,91.1717742 16.9333333,65.5 C16.9333333,39.8282258 37.7825,19.016129 63.5,19.016129 C89.2175,19.016129 110.066667,39.8282258 110.066667,65.5" id="Fill-944" fill="#BCE1E1"></path>
            <path d="M92.1808333,48.972871 C87.9051667,45.7950645 83.2696667,42.7376935 78.3166667,39.8831613 C73.3636667,37.0265161 68.3895,34.5459677 63.5,32.4415161 C58.6105,34.5459677 53.6363333,37.0265161 48.6833333,39.8831613 C43.7303333,42.7376935 39.0948333,45.7950645 34.8191667,48.972871 C34.2053333,54.2509032 33.8666667,59.7888226 33.8666667,65.5 C33.8666667,71.2111774 34.2053333,76.7490968 34.8191667,82.027129 C39.0948333,85.2049355 43.7303333,88.2623065 48.6833333,91.1168387 C53.6363333,93.9734839 58.6105,96.4540323 63.5,98.5584839 C68.3895,96.4540323 73.3636667,93.9734839 78.3166667,91.1168387 C83.2696667,88.2623065 87.9051667,85.2049355 92.1808333,82.027129 C92.7946667,76.7490968 93.1333333,71.2111774 93.1333333,65.5 C93.1333333,59.7888226 92.7946667,54.2509032 92.1808333,48.972871" id="Fill-945" fill="#FFFFFF"></path>
            <path d="M69.85,63.3870968 L82.55,69.7258065 L82.55,73.9516129 C82.55,77.4526935 80.4333333,80.2903226 78.3166667,80.2903226 L48.6833333,80.2903226 C46.5666667,80.2903226 44.45,77.4526935 44.45,73.9516129 L44.45,69.7258065 L57.15,63.3870968" id="Fill-946" fill="#84CBCB"></path>
            <path d="M71.9666667,51.766129 C71.9666667,57.0483871 69.9346667,63.3870968 63.5,63.3870968 C57.0653333,63.3870968 55.0333333,57.0483871 55.0333333,51.766129 C55.0333333,46.483871 57.15,42.2580645 63.5,42.2580645 C69.85,42.2580645 71.9666667,46.483871 71.9666667,51.766129" id="Fill-947" fill="#E9962D"></path>
            <path d="M48.9373333,8.4516129 C53.2341667,3.07004839 58.2083333,0 63.5,0 C79.8618333,0 93.1333333,29.3249839 93.1333333,65.5 C93.1333333,101.675016 79.8618333,131 63.5,131 C47.1381667,131 33.8666667,101.675016 33.8666667,65.5 C33.8666667,50.3737258 36.195,36.4433548 40.0896667,25.3548387 M120.65,82.4053387 C122.809,88.4313387 122.830167,93.9037581 120.3325,98.25 C112.141,112.398 80.0735,109.205403 48.6833333,91.1189516 C17.2931667,73.0303871 -1.50283333,46.898 6.6675,32.75 C14.859,18.602 46.9265,21.7945968 78.3166667,39.8810484 C91.5246667,47.4959516 102.510167,56.5328387 110.193667,65.5042258 M6.35,82.4032258 C4.191,88.4292258 4.16983333,93.9037581 6.6675,98.25 C14.859,112.398 46.9265,109.205403 78.3166667,91.1189516 C109.706833,73.0303871 128.502833,46.898 120.3325,32.75 C112.141,18.602 80.0735,21.7945968 48.6833333,39.8810484 C35.4753333,47.4959516 24.4898333,56.5307258 16.8275,65.5" id="Stroke-948" stroke="#464A48" stroke-width="3"></path>
            <path d="M12.7,82.4032258 C12.7,85.9043065 9.86366667,88.7419355 6.35,88.7419355 C2.83633333,88.7419355 0,85.9043065 0,82.4032258 C0,78.9042581 2.83633333,76.0645161 6.35,76.0645161 C9.86366667,76.0645161 12.7,78.9042581 12.7,82.4032258" id="Fill-949" fill="#FFFFFF"></path>
            <path d="M12.7,82.4032258 C12.7,85.9043065 9.86366667,88.7419355 6.35,88.7419355 C2.83633333,88.7419355 0,85.9043065 0,82.4032258 C0,78.9042581 2.83633333,76.0645161 6.35,76.0645161 C9.86366667,76.0645161 12.7,78.9042581 12.7,82.4032258 L12.7,82.4032258 Z" id="Stroke-950" stroke="#464A48" stroke-width="3"></path>
            <path d="M127,82.4032258 C127,85.9043065 124.163667,88.7419355 120.65,88.7419355 C117.136333,88.7419355 114.3,85.9043065 114.3,82.4032258 C114.3,78.9042581 117.136333,76.0645161 120.65,76.0645161 C124.163667,76.0645161 127,78.9042581 127,82.4032258" id="Fill-951" fill="#FFFFFF"></path>
            <path d="M127,82.4032258 C127,85.9043065 124.163667,88.7419355 120.65,88.7419355 C117.136333,88.7419355 114.3,85.9043065 114.3,82.4032258 C114.3,78.9042581 117.136333,76.0645161 120.65,76.0645161 C124.163667,76.0645161 127,78.9042581 127,82.4032258 L127,82.4032258 Z" id="Stroke-952" stroke="#464A48" stroke-width="3"></path>
            <path d="M55.0333333,8.4516129 C55.0333333,11.9526935 52.197,14.7903226 48.6833333,14.7903226 C45.1696667,14.7903226 42.3333333,11.9526935 42.3333333,8.4516129 C42.3333333,4.95264516 45.1696667,2.11290323 48.6833333,2.11290323 C52.197,2.11290323 55.0333333,4.95264516 55.0333333,8.4516129" id="Fill-953" fill="#FFFFFF"></path>
            <path d="M55.0333333,8.4516129 C55.0333333,11.9526935 52.197,14.7903226 48.6833333,14.7903226 C45.1696667,14.7903226 42.3333333,11.9526935 42.3333333,8.4516129 C42.3333333,4.95264516 45.1696667,2.11290323 48.6833333,2.11290323 C52.197,2.11290323 55.0333333,4.95264516 55.0333333,8.4516129 L55.0333333,8.4516129 Z" id="Stroke-954" stroke="#464A48" stroke-width="3"></path>
        </g>
    </g>
</svg>