<?xml version="1.0" encoding="UTF-8" standalone="no"?>
<svg width="156px" height="123px" viewBox="0 0 156 123" version="1.1" xmlns="http://www.w3.org/2000/svg" xmlns:xlink="http://www.w3.org/1999/xlink">
    <!-- Generator: Sketch 39.1 (31720) - http://www.bohemiancoding.com/sketch -->
    <title>دعم التكامل</title>
    <desc>Created with Sketch.</desc>
    <defs></defs>
    <g id="Page-1" stroke="none" stroke-width="1" fill="none" fill-rule="evenodd">
        <g id="دعم-التكامل" transform="translate(2.000000, 0.000000)">
            <polyline id="Fill-4450" fill="#FFFFFF" points="68.6451613 105.78 9.80645161 105.78 0 95.94 0 91.02 58.8387097 91.02 63.7419355 95.94 68.6451613 95.94 68.6451613 105.78"></polyline>
            <path d="M68.6451613,7.38 L22.0645161,7.38 C17.9948387,7.38 14.7096774,10.6764 14.7096774,14.76 L14.7096774,93.48 L68.6451613,93.48" id="Fill-4451" fill="#FFFFFF"></path>
            <path d="M68.6451613,105.78 L9.80645161,105.78 L0,95.94 L0,91.02 L58.8387097,91.02 L63.7419355,95.94 L68.6451613,95.94 M68.6451613,7.38 L22.0645161,7.38 C17.9948387,7.38 14.7096774,10.6764 14.7096774,14.76 L14.7096774,88.56" id="Stroke-4452" stroke="#464A48" stroke-width="3"></path>
            <polygon id="Fill-4453" fill="#F4B25A" points="22.0645161 83.64 68.6451613 83.64 68.6451613 14.76 22.0645161 14.76"></polygon>
            <polyline id="Fill-4454" fill="#FFFFFF" points="83.3548387 115.62 142.193548 115.62 152 105.78 152 100.86 93.1612903 100.86 88.2580645 105.78 83.3548387 105.78 83.3548387 115.62"></polyline>
            <path d="M83.3548387,17.22 L129.935484,17.22 C134.005161,17.22 137.290323,20.5164 137.290323,24.6 L137.290323,103.32 L83.3548387,103.32" id="Fill-4455" fill="#FFFFFF"></path>
            <path d="M83.3548387,115.62 L142.193548,115.62 L152,105.78 L152,100.86 L93.1612903,100.86 L88.2580645,105.78 L83.3548387,105.78 M83.3548387,17.22 L129.935484,17.22 C134.005161,17.22 137.290323,20.5164 137.290323,24.6 L137.290323,98.4" id="Stroke-4456" stroke="#464A48" stroke-width="3"></path>
            <polygon id="Fill-4457" fill="#77C6C6" points="83.3548387 93.48 129.935484 93.48 129.935484 24.6 83.3548387 24.6"></polygon>
            <path d="M76,78.72 L76,123 M76,44.28 L76,63.96 M76,0 L76,29.52 M76,71.34 C66.5122581,71.34 58.8387097,63.6402 58.8387097,54.12 M76,36.9 C85.4877419,36.9 93.1612903,44.5998 93.1612903,54.12 M76,71.34 L95.6129032,71.34 M56.3870968,36.9 L76,36.9 M85.8064516,81.18 L95.6129032,71.34 L85.8064516,61.5 M66.1935484,46.74 L56.3870968,36.9 L66.1935484,27.06" id="Stroke-4458" stroke="#464A48" stroke-width="3"></path>
        </g>
    </g>
</svg>