<?xml version="1.0" encoding="UTF-8" standalone="no"?>
<svg width="136px" height="136px" viewBox="0 0 136 136" version="1.1" xmlns="http://www.w3.org/2000/svg" xmlns:xlink="http://www.w3.org/1999/xlink">
    <!-- Generator: Sketch 39.1 (31720) - http://www.bohemiancoding.com/sketch -->
    <title>تطوير المواقع</title>
    <desc>Created with Sketch.</desc>
    <defs></defs>
    <g id="Page-1" stroke="none" stroke-width="1" fill="none" fill-rule="evenodd">
        <g id="تطوير-المواقع" transform="translate(2.000000, 2.000000)">
            <path d="M104.322581,93.6774194 L104.322581,36.1935484 C104.322581,25.610129 95.7425806,17.0322581 85.1612903,17.0322581 L46.8387097,17.0322581 C36.2574194,17.0322581 27.6774194,25.610129 27.6774194,36.1935484 L27.6774194,93.6774194" id="Fill-917" fill="#84CBCB"></path>
            <path d="M83.0322581,61.7419355 C97.9354839,70.2580645 114.967742,68.1290323 114.967742,89.4193548 L114.967742,93.6774194 L17.0322581,93.6774194 L17.0322581,89.4193548 C17.0322581,68.1290323 34.0645161,70.2580645 48.9677419,61.7419355 L83.0322581,61.7419355" id="Fill-918" fill="#E9962D"></path>
            <polyline id="Fill-919" fill="#FFFFFF" points="74.516129 70.2580645 66 66 57.483871 70.2580645 48.9677419 61.7419355 53.2258065 55.3548387 55.3548387 55.3548387 55.3548387 46.8387097 66 48.9677419 76.6451613 46.8387097 76.6451613 55.3548387 78.7741935 55.3548387 83.0322581 61.7419355 74.516129 70.2580645"></polyline>
            <path d="M74.516129,70.2580645 L66,66 L57.483871,70.2580645 L48.9677419,61.7419355 L53.2258065,55.3548387 L66,57.483871 L78.7741935,55.3548387 L83.0322581,61.7419355 L74.516129,70.2580645 L74.516129,70.2580645 Z M76.6451613,46.8387097 L76.6451613,55.3548387 L76.6451613,46.8387097 Z M55.3548387,55.3548387 L55.3548387,46.8387097 L55.3548387,55.3548387 Z" id="Stroke-920" stroke="#464A48" stroke-width="3"></path>
            <path d="M85.1612903,19.1612903 L85.1612903,27.6774194 C83.0322581,42.5806452 76.6451613,46.8387097 76.6451613,46.8387097 C72.3870968,48.9677419 66,48.9677419 66,48.9677419 C66,48.9677419 59.6129032,48.9677419 55.3548387,46.8387097 C55.3548387,46.8387097 48.9677419,42.5806452 46.8387097,27.6774194 L46.8387097,19.1612903 L55.3548387,14.9032258 L76.6451613,23.4193548 L85.1612903,19.1612903" id="Fill-921" fill="#FFFFFF"></path>
            <path d="M46.8387097,19.1612903 C46.8387097,6.22741935 53.0554839,0 66,0 C78.9445161,0 85.1612903,6.22741935 85.1612903,19.1612903 L76.6451613,23.4193548 L55.3548387,14.9032258 L46.8387097,19.1612903" id="Fill-922" fill="#F7C06A"></path>
            <path d="M85.1612903,19.1612903 L85.1612903,27.6774194 C83.0322581,42.5806452 76.6451613,46.8387097 76.6451613,46.8387097 C72.3870968,48.9677419 66,48.9677419 66,48.9677419 C66,48.9677419 59.6129032,48.9677419 55.3548387,46.8387097 C55.3548387,46.8387097 48.9677419,42.5806452 46.8387097,27.6774194 L46.8387097,19.1612903 C46.8387097,6.22741935 53.0554839,0 66,0 C78.9445161,0 85.1612903,6.22741935 85.1612903,19.1612903 M46.8387097,19.1612903 L55.3548387,14.9032258 L76.6451613,23.4193548 L85.1612903,19.1612903" id="Stroke-923" stroke="#464A48" stroke-width="3"></path>
            <polygon id="Fill-924" fill="#FFFFFF" points="0 132 132 132 132 93.6774194 0 93.6774194"></polygon>
            <polyline id="Stroke-925" stroke="#464A48" stroke-width="3" points="21.2903226 132 0 132 0 93.6774194 132 93.6774194 132 132 110.709677 132"></polyline>
            <path d="M102.193548,83.0322581 L102.193548,132 L29.8064516,132 L29.8064516,83.0322581 C29.8064516,79.5065806 32.6593548,76.6451613 36.1935484,76.6451613 L95.8064516,76.6451613 C99.3406452,76.6451613 102.193548,79.5065806 102.193548,83.0322581" id="Fill-926" fill="#FFFFFF"></path>
            <path d="M102.193548,83.0322581 L102.193548,132 L29.8064516,132 L29.8064516,83.0322581 C29.8064516,79.5065806 32.6593548,76.6451613 36.1935484,76.6451613 L95.8064516,76.6451613 C99.3406452,76.6451613 102.193548,79.5065806 102.193548,83.0322581 L102.193548,83.0322581 Z M102.193548,132 L108.580645,119.225806 L108.580645,102.193548 L102.193548,102.193548 L102.193548,132 Z M29.8064516,132 L23.4193548,119.225806 L23.4193548,102.193548 L29.8064516,102.193548 L29.8064516,132 Z" id="Stroke-927" stroke="#464A48" stroke-width="3" stroke-linejoin="round"></path>
            <path d="M72.3870968,104.322581 C72.3870968,107.848258 69.5341935,110.709677 66,110.709677 C62.4658065,110.709677 59.6129032,107.848258 59.6129032,104.322581 C59.6129032,100.796903 62.4658065,97.9354839 66,97.9354839 C69.5341935,97.9354839 72.3870968,100.796903 72.3870968,104.322581" id="Fill-928" fill="#BCE1E1"></path>
        </g>
    </g>
</svg>