<?xml version="1.0" encoding="UTF-8" standalone="no"?>
<svg width="110px" height="118px" viewBox="0 0 110 118" version="1.1" xmlns="http://www.w3.org/2000/svg" xmlns:xlink="http://www.w3.org/1999/xlink">
    <!-- Generator: Sketch 39.1 (31720) - http://www.bohemiancoding.com/sketch -->
    <title>إختبار آلية الإختراق</title>
    <desc>Created with Sketch.</desc>
    <defs></defs>
    <g id="Page-1" stroke="none" stroke-width="1" fill="none" fill-rule="evenodd">
        <g id="إختبار-آلية-الإختراق" transform="translate(2.000000, 2.000000)">
            <polygon id="Fill-1630" fill="#BCE1E1" points="0 114 106 114 106 99.2903226 0 99.2903226"></polygon>
            <polygon id="Fill-1631" fill="#FFFFFF" points="0 99.2903226 106 99.2903226 106 0 0 0"></polygon>
            <path d="M0,93.7741935 L0,0 L106,0 L106,93.7741935 L0,93.7741935 Z M0,114 L106,114 L106,99.2903226 L0,99.2903226 L0,114 Z M5.48275862,106.645161 L9.13793103,106.645161 L5.48275862,106.645161 Z" id="Stroke-1632" stroke="#464A48" stroke-width="3" stroke-linejoin="round"></path>
            <polygon id="Fill-1633" fill="#E9962D" points="21.9310345 99.2903226 84.0689655 99.2903226 84.0689655 91.9354839 21.9310345 91.9354839"></polygon>
            <path d="M21.9310345,99.2903226 L84.0689655,99.2903226 L84.0689655,91.9354839 L21.9310345,91.9354839 L21.9310345,99.2903226 Z M12.7931034,106.645161 L16.4482759,106.645161 L12.7931034,106.645161 Z M20.1034483,106.645161 L23.7586207,106.645161 L20.1034483,106.645161 Z M100.517241,106.645161 L82.2413793,106.645161 L100.517241,106.645161 Z M0,7.35483871 L106,7.35483871 L0,7.35483871 Z M53,80.9032258 L53,91.9354839 L53,80.9032258 Z M53,7.35483871 L53,18.3870968 L53,7.35483871 Z" id="Stroke-1634" stroke="#464A48" stroke-width="3" stroke-linejoin="round"></path>
            <path d="M84.0689655,71.7096774 L93.2068966,71.7096774 C96.2406897,71.7096774 98.6896552,69.2458065 98.6896552,66.1935484 L98.6896552,33.0967742 C98.6896552,30.0445161 96.2406897,27.5806452 93.2068966,27.5806452 L12.7931034,27.5806452 C9.75931034,27.5806452 7.31034483,30.0445161 7.31034483,33.0967742 L7.31034483,66.1935484 C7.31034483,69.2458065 9.75931034,71.7096774 12.7931034,71.7096774 L84.0689655,71.7096774" id="Fill-1635" fill="#F7C06A"></path>
            <path d="M21.9310345,71.7096774 L12.7931034,71.7096774 C9.75931034,71.7096774 7.31034483,69.2458065 7.31034483,66.1935484 L7.31034483,33.0967742 C7.31034483,30.0445161 9.75931034,27.5806452 12.7931034,27.5806452 L21.9310345,27.5806452 M84.0689655,27.5806452 L93.2068966,27.5806452 C96.2406897,27.5806452 98.6896552,30.0445161 98.6896552,33.0967742 L98.6896552,66.1935484 C98.6896552,69.2458065 96.2406897,71.7096774 93.2068966,71.7096774 L84.0689655,71.7096774 M7.31034483,38.6129032 L0,38.6129032 M7.31034483,60.6774194 L0,60.6774194 M106,38.6129032 L98.6896552,38.6129032 M106,60.6774194 L98.6896552,60.6774194" id="Stroke-1636" stroke="#464A48" stroke-width="2" stroke-linejoin="round"></path>
            <path d="M78.5862069,49.6451613 C78.5862069,63.8583871 67.1272414,75.3870968 53,75.3870968 C38.8727586,75.3870968 27.4137931,63.8583871 27.4137931,49.6451613 C27.4137931,35.4319355 38.8727586,23.9032258 53,23.9032258 C67.1272414,23.9032258 78.5862069,35.4319355 78.5862069,49.6451613" id="Fill-1637" fill="#84CBCB"></path>
            <path d="M78.5862069,49.6451613 C78.5862069,63.8583871 67.1272414,75.3870968 53,75.3870968 C38.8727586,75.3870968 27.4137931,63.8583871 27.4137931,49.6451613 C27.4137931,35.4319355 38.8727586,23.9032258 53,23.9032258 C67.1272414,23.9032258 78.5862069,35.4319355 78.5862069,49.6451613 L78.5862069,49.6451613 Z M63.9655172,49.6451613 C63.9655172,63.8583871 59.0493103,75.3870968 53,75.3870968 C46.9506897,75.3870968 42.0344828,63.8583871 42.0344828,49.6451613 C42.0344828,35.4319355 46.9506897,23.9032258 53,23.9032258 C59.0493103,23.9032258 63.9655172,35.4319355 63.9655172,49.6451613 L63.9655172,49.6451613 Z M29.2413793,40.4516129 L76.7586207,40.4516129 L29.2413793,40.4516129 Z M29.2413793,58.8387097 L76.7586207,58.8387097 L29.2413793,58.8387097 Z" id="Stroke-1638" stroke="#464A48" stroke-width="3" stroke-linejoin="round"></path>
        </g>
    </g>
</svg>