<?xml version="1.0" encoding="UTF-8" standalone="no"?>
<svg width="126px" height="126px" viewBox="0 0 126 126" version="1.1" xmlns="http://www.w3.org/2000/svg" xmlns:xlink="http://www.w3.org/1999/xlink">
    <!-- Generator: Sketch 39.1 (31720) - http://www.bohemiancoding.com/sketch -->
    <title>الحماية المتقدمة من المخاطر</title>
    <desc>Created with Sketch.</desc>
    <defs></defs>
    <g id="Page-1" stroke="none" stroke-width="1" fill="none" fill-rule="evenodd">
        <g id="الحماية-المتقدمة-من-المخاطر">
            <path d="M126,63 C126,97.7878125 97.7878125,126 63,126 C28.2121875,126 0,97.7878125 0,63 C0,28.2121875 28.2121875,0 63,0 C97.7878125,0 126,28.2121875 126,63" id="Fill-1515" fill="#CBCBCB"></path>
            <path d="M112.21875,27.5625 C112.21875,102.375 63,124.03125 63,124.03125 C63,124.03125 13.78125,102.375 13.78125,27.5625 L13.78125,13.78125 C13.78125,13.78125 21.65625,21.65625 35.4375,21.65625 C49.21875,21.65625 63,1.96875 63,1.96875 C63,1.96875 76.78125,21.65625 90.5625,21.65625 C104.34375,21.65625 112.21875,13.78125 112.21875,13.78125 L112.21875,27.5625" id="Fill-1516" fill="#FFFFFF"></path>
            <path d="M112.21875,27.5625 C112.21875,102.375 63,124.03125 63,124.03125 C63,124.03125 13.78125,102.375 13.78125,27.5625 L13.78125,13.78125 C13.78125,13.78125 21.65625,21.65625 35.4375,21.65625 C49.21875,21.65625 63,1.96875 63,1.96875 C63,1.96875 76.78125,21.65625 90.5625,21.65625 C104.34375,21.65625 112.21875,13.78125 112.21875,13.78125 L112.21875,27.5625 L112.21875,27.5625 Z" id="Stroke-1517" stroke="#464A48" stroke-width="2" stroke-linejoin="round"></path>
            <path d="M63,114.1875 C63,114.1875 88.7709375,100.662187 99.5990625,63 L63,63 L63,114.1875" id="Fill-1518" fill="#F7C06A"></path>
            <path d="M26.4009375,63 C37.2290625,100.662187 63,114.1875 63,114.1875 L63,63 L26.4009375,63" id="Fill-1519" fill="#E9962D"></path>
            <path d="M90.5625,29.53125 C72.84375,29.53125 63,13.78125 63,13.78125 L63,63 L99.5990625,63 C102.493125,52.959375 104.34375,41.225625 104.34375,27.5625 C104.34375,27.5625 100.40625,29.53125 90.5625,29.53125" id="Fill-1520" fill="#E9962D"></path>
            <path d="M63,13.78125 C63,13.78125 55.125,29.53125 35.4375,29.53125 C25.59375,29.53125 21.65625,27.5625 21.65625,27.5625 C21.65625,41.225625 23.506875,52.959375 26.4009375,63 L63,63 L63,13.78125" id="Fill-1521" fill="#F7C06A"></path>
        </g>
    </g>
</svg>