<?xml version="1.0" encoding="UTF-8" standalone="no"?>
<svg width="122px" height="122px" viewBox="0 0 122 122" version="1.1" xmlns="http://www.w3.org/2000/svg" xmlns:xlink="http://www.w3.org/1999/xlink">
    <!-- Generator: Sketch 39.1 (31720) - http://www.bohemiancoding.com/sketch -->
    <title>الإستجابة الفورية للحوادث التقنية</title>
    <desc>Created with Sketch.</desc>
    <defs></defs>
    <g id="Page-1" stroke="none" stroke-width="1" fill="none" fill-rule="evenodd">
        <g id="الإستجابة-الفورية-للحوادث-التقنية">
            <path d="M122,61 C122,94.6834375 94.6834375,122 61,122 C27.3165625,122 0,94.6834375 0,61 C0,27.3165625 27.3165625,0 61,0 C94.6834375,0 122,27.3165625 122,61" id="Fill-1592" fill="#E9962D"></path>
            <polyline id="Fill-1593" fill="#FFFFFF" points="66.71875 122 66.71875 36.21875 28.59375 36.21875 28.59375 30.5 59.09375 17.15625 93.40625 17.15625 93.40625 36.21875 104.84375 36.21875 108.65625 43.84375 89.59375 43.84375 89.59375 122"></polyline>
            <polyline id="Stroke-1594" stroke="#464A48" stroke-width="2" stroke-linejoin="round" points="66.71875 122 66.71875 36.21875 28.59375 36.21875 28.59375 30.5 59.09375 17.15625 93.40625 17.15625 93.40625 36.21875 104.84375 36.21875 108.65625 43.84375 89.59375 43.84375 89.59375 122"></polyline>
            <polyline id="Fill-1595" fill="#FFFFFF" points="70.53125 66.71875 28.59375 66.71875 28.59375 72.4375 55.28125 83.875 62.90625 83.875 62.90625 89.59375 59.09375 93.40625 59.09375 112.46875 70.53125 112.46875 70.53125 66.71875"></polyline>
            <polygon id="Stroke-1596" stroke="#464A48" stroke-width="2" stroke-linejoin="round" points="70.53125 66.71875 28.59375 66.71875 28.59375 72.4375 55.28125 83.875 62.90625 83.875 62.90625 89.59375 59.09375 93.40625 59.09375 112.46875 70.53125 112.46875"></polygon>
            <polyline id="Fill-1597" fill="#FFFFFF" points="85.78125 66.71875 108.65625 66.71875 104.84375 74.34375 93.40625 74.34375 93.40625 112.46875 85.78125 112.46875 85.78125 66.71875"></polyline>
            <path d="M85.78125,66.71875 L108.65625,66.71875 L104.84375,74.34375 L93.40625,74.34375 L93.40625,112.46875 L85.78125,112.46875 L85.78125,66.71875 L85.78125,66.71875 Z M78.15625,38.125 L78.15625,41.9375 L78.15625,38.125 Z M78.15625,45.75 L78.15625,49.5625 L78.15625,45.75 Z M78.15625,53.375 L78.15625,57.1875 L78.15625,53.375 Z M78.15625,61 L78.15625,64.8125 L78.15625,61 Z M78.15625,68.625 L78.15625,72.4375 L78.15625,68.625 Z M78.15625,76.25 L78.15625,80.0625 L78.15625,76.25 Z M78.15625,83.875 L78.15625,87.6875 L78.15625,83.875 Z M78.15625,91.5 L78.15625,95.3125 L78.15625,91.5 Z M78.15625,99.125 L78.15625,102.9375 L78.15625,99.125 Z M78.15625,106.75 L78.15625,110.5625 L78.15625,106.75 Z M78.15625,114.375 L78.15625,118.1875 L78.15625,114.375 Z" id="Stroke-1598" stroke="#464A48" stroke-width="2" stroke-linejoin="round"></path>
            <path d="M43.84375,51.46875 C43.84375,59.894375 37.019375,66.71875 28.59375,66.71875 C20.168125,66.71875 13.34375,59.894375 13.34375,51.46875 C13.34375,43.043125 20.168125,36.21875 28.59375,36.21875 C37.019375,36.21875 43.84375,43.043125 43.84375,51.46875" id="Fill-1599" fill="#84CBCB"></path>
            <path d="M43.84375,51.46875 C43.84375,59.894375 37.019375,66.71875 28.59375,66.71875 C20.168125,66.71875 13.34375,59.894375 13.34375,51.46875 C13.34375,43.043125 20.168125,36.21875 28.59375,36.21875 C37.019375,36.21875 43.84375,43.043125 43.84375,51.46875 L43.84375,51.46875 Z" id="Stroke-1600" stroke="#464A48" stroke-width="2" stroke-linejoin="round"></path>
            <path d="M34.3125,51.46875 C34.3125,54.633125 31.758125,57.1875 28.59375,57.1875 C25.429375,57.1875 22.875,54.633125 22.875,51.46875 C22.875,48.304375 25.429375,45.75 28.59375,45.75 C31.758125,45.75 34.3125,48.304375 34.3125,51.46875" id="Fill-1601" fill="#FFFFFF"></path>
            <path d="M34.3125,51.46875 C34.3125,54.633125 31.758125,57.1875 28.59375,57.1875 C25.429375,57.1875 22.875,54.633125 22.875,51.46875 C22.875,48.304375 25.429375,45.75 28.59375,45.75 C31.758125,45.75 34.3125,48.304375 34.3125,51.46875 L34.3125,51.46875 Z" id="Stroke-1602" stroke="#464A48" stroke-width="2" stroke-linejoin="round"></path>
        </g>
    </g>
</svg>