<?xml version="1.0" encoding="UTF-8" standalone="no"?>
<svg width="112px" height="112px" viewBox="0 0 112 112" version="1.1" xmlns="http://www.w3.org/2000/svg" xmlns:xlink="http://www.w3.org/1999/xlink">
    <!-- Generator: Sketch 39.1 (31720) - http://www.bohemiancoding.com/sketch -->
    <title>ضمان الجودة بأعلى المعايير</title>
    <desc>Created with Sketch.</desc>
    <defs></defs>
    <g id="Page-1" stroke="none" stroke-width="1" fill="none" fill-rule="evenodd">
        <g id="ضمان-الجودة-بأعلى-المعايير" transform="translate(2.000000, 2.000000)">
            <path d="M108,100.551724 C108,104.666897 104.666897,108 100.551724,108 L7.44827586,108 C3.33310345,108 0,104.666897 0,100.551724 L0,7.44827586 C0,3.33310345 3.33310345,0 7.44827586,0 L100.551724,0 C104.666897,0 108,3.33310345 108,7.44827586 L108,100.551724" id="Fill-4037" fill="#FFFFFF"></path>
            <polyline id="Fill-4038" fill="#B2DDDD" points="65.1724138 37.2413793 42.8275862 37.2413793 5.5862069 0 27.9310345 0 65.1724138 37.2413793"></polyline>
            <polyline id="Fill-4039" fill="#B2DDDD" points="65.1724138 37.2413793 42.8275862 37.2413793 80.0689655 0 102.413793 0 65.1724138 37.2413793"></polyline>
            <path d="M5.5862069,0 L42.8275862,37.2413793 M27.9310345,0 L54,26.0689655 M102.413793,0 L65.1724138,37.2413793 M80.0689655,0 L42.8275862,37.2413793" id="Stroke-4040" stroke="#464A48" stroke-width="2" stroke-linecap="round"></path>
            <polygon id="Fill-4041" fill="#F4B25A" points="40.9655172 44.6896552 67.0344828 44.6896552 67.0344828 37.2413793 40.9655172 37.2413793"></polygon>
            <polygon id="Stroke-4042" stroke="#464A48" stroke-width="3" stroke-linecap="round" points="40.9655172 44.6896552 67.0344828 44.6896552 67.0344828 37.2413793 40.9655172 37.2413793"></polygon>
            <path d="M76.3448276,74.4827586 C76.3448276,86.8282759 66.3455172,96.8275862 54,96.8275862 C41.6544828,96.8275862 31.6551724,86.8282759 31.6551724,74.4827586 C31.6551724,62.1372414 41.6544828,52.137931 54,52.137931 C66.3455172,52.137931 76.3448276,62.1372414 76.3448276,74.4827586" id="Fill-4043" fill="#F4B25A"></path>
            <path d="M68.8965517,74.4827586 C68.8965517,82.7131034 62.2303448,89.3793103 54,89.3793103 C45.7696552,89.3793103 39.1034483,82.7131034 39.1034483,74.4827586 C39.1034483,66.2524138 45.7696552,59.5862069 54,59.5862069 C62.2303448,59.5862069 68.8965517,66.2524138 68.8965517,74.4827586" id="Fill-4044" fill="#E5842D"></path>
            <path d="M76.3448276,74.4827586 C76.3448276,86.8282759 66.3455172,96.8275862 54,96.8275862 C41.6544828,96.8275862 31.6551724,86.8282759 31.6551724,74.4827586 C31.6551724,62.1372414 41.6544828,52.137931 54,52.137931 C66.3455172,52.137931 76.3448276,62.1372414 76.3448276,74.4827586 L76.3448276,74.4827586 Z" id="Stroke-4045" stroke="#464A48" stroke-width="3" stroke-linecap="round"></path>
            <path d="M108,100.551724 C108,104.666897 104.666897,108 100.551724,108 L7.44827586,108 C3.33310345,108 0,104.666897 0,100.551724 L0,7.44827586 C0,3.33310345 3.33310345,0 7.44827586,0 L100.551724,0 C104.666897,0 108,3.33310345 108,7.44827586 L108,100.551724 L108,100.551724 Z" id="Stroke-4046" stroke="#464A48" stroke-width="3"></path>
            <path d="M57.7241379,44.6896552 L57.7241379,52.137931 M50.2758621,44.6896552 L50.2758621,52.137931" id="Stroke-4047" stroke="#464A48" stroke-width="2" stroke-linecap="round"></path>
            <polyline id="Fill-4048" fill="#F4B25A" points="50.2758621 67.0344828 50.2758621 70.7586207 52.137931 70.7586207 52.137931 81.9310345 55.862069 81.9310345 55.862069 67.0344828 50.2758621 67.0344828"></polyline>
            <path d="M22.3448276,74.4827586 L18.6206897,74.4827586 M89.3793103,74.4827586 L85.6551724,74.4827586" id="Stroke-4049" stroke="#464A48" stroke-width="2"></path>
        </g>
    </g>
</svg>