<?xml version="1.0" encoding="UTF-8" standalone="no"?>
<svg width="122px" height="122px" viewBox="0 0 122 122" version="1.1" xmlns="http://www.w3.org/2000/svg" xmlns:xlink="http://www.w3.org/1999/xlink">
    <!-- Generator: Sketch 39.1 (31720) - http://www.bohemiancoding.com/sketch -->
    <title>تكامل خدمة وقاعدة البيانات المحلية</title>
    <desc>Created with Sketch.</desc>
    <defs></defs>
    <g id="Page-1" stroke="none" stroke-width="1" fill="none" fill-rule="evenodd">
        <g id="تكامل-خدمة-وقاعدة-البيانات-المحلية">
            <path d="M122,61 C122,94.6834375 94.6910625,122 61,122 C27.3089375,122 0,94.6834375 0,61 C0,27.3165625 27.3089375,0 61,0 C94.6910625,0 122,27.3165625 122,61" id="Fill-3176" fill="#CBCBCB"></path>
            <polygon id="Fill-3177" fill="#FFFFFF" points="26.6875 17.15625 95.3125 17.15625 95.3125 1.90625 26.6875 1.90625"></polygon>
            <polygon id="Fill-3178" fill="#FFFFFF" points="40.03125 36.21875 81.96875 36.21875 81.96875 28.59375 40.03125 28.59375"></polygon>
            <polygon id="Fill-3179" fill="#FFFFFF" points="40.03125 51.46875 81.96875 51.46875 81.96875 43.84375 40.03125 43.84375"></polygon>
            <polygon id="Fill-3180" fill="#FFFFFF" points="40.03125 66.71875 81.96875 66.71875 81.96875 59.09375 40.03125 59.09375"></polygon>
            <polygon id="Fill-3181" fill="#FFFFFF" points="40.03125 81.96875 81.96875 81.96875 81.96875 74.34375 40.03125 74.34375"></polygon>
            <polygon id="Fill-3182" fill="#FFFFFF" points="40.03125 97.21875 81.96875 97.21875 81.96875 89.59375 40.03125 89.59375"></polygon>
            <polygon id="Fill-3183" fill="#F4B25A" points="40.03125 120.09375 81.96875 120.09375 81.96875 108.65625 40.03125 108.65625"></polygon>
            <polygon id="Fill-3184" fill="#FFFFFF" points="93.40625 120.09375 120.09375 120.09375 120.09375 108.65625 93.40625 108.65625"></polygon>
            <polygon id="Fill-3185" fill="#FFFFFF" points="1.90625 120.09375 28.59375 120.09375 28.59375 108.65625 1.90625 108.65625"></polygon>
            <path d="M26.6875,17.15625 L95.3125,17.15625 L95.3125,1.90625 L26.6875,1.90625 L26.6875,17.15625 Z M40.03125,36.21875 L81.96875,36.21875 L81.96875,28.59375 L40.03125,28.59375 L40.03125,36.21875 Z M40.03125,51.46875 L81.96875,51.46875 L81.96875,43.84375 L40.03125,43.84375 L40.03125,51.46875 Z M40.03125,66.71875 L81.96875,66.71875 L81.96875,59.09375 L40.03125,59.09375 L40.03125,66.71875 Z M40.03125,81.96875 L81.96875,81.96875 L81.96875,74.34375 L40.03125,74.34375 L40.03125,81.96875 Z M40.03125,97.21875 L81.96875,97.21875 L81.96875,89.59375 L40.03125,89.59375 L40.03125,97.21875 Z M40.03125,120.09375 L81.96875,120.09375 L81.96875,108.65625 L40.03125,108.65625 L40.03125,120.09375 Z M93.40625,120.09375 L120.09375,120.09375 L120.09375,108.65625 L93.40625,108.65625 L93.40625,120.09375 Z M1.90625,120.09375 L28.59375,120.09375 L28.59375,108.65625 L1.90625,108.65625 L1.90625,120.09375 Z M61,17.15625 L61,28.59375 L61,17.15625 Z M61,97.21875 L61,108.65625 L61,97.21875 Z M93.40625,114.375 L81.96875,114.375 L93.40625,114.375 Z M40.03125,114.375 L28.59375,114.375 L40.03125,114.375 Z M87.6875,32.40625 C91.8984062,32.40625 95.3125,35.8184375 95.3125,40.03125 C95.3125,44.2440625 91.8984062,47.65625 87.6875,47.65625 L87.6875,32.40625 Z M87.6875,62.90625 C91.8984062,62.90625 95.3125,66.3184375 95.3125,70.53125 C95.3125,74.7440625 91.8984062,78.15625 87.6875,78.15625 L87.6875,62.90625 Z M34.3125,62.90625 C30.1015937,62.90625 26.6875,59.4940625 26.6875,55.28125 C26.6875,51.0684375 30.1015937,47.65625 34.3125,47.65625 L34.3125,62.90625 Z M34.3125,93.40625 C30.1015937,93.40625 26.6875,89.9940625 26.6875,85.78125 C26.6875,81.5684375 30.1015937,78.15625 34.3125,78.15625 L34.3125,93.40625 Z M59.09375,9.53125 L62.90625,9.53125 L59.09375,9.53125 Z M66.71875,9.53125 L70.53125,9.53125 L66.71875,9.53125 Z M51.46875,9.53125 L55.28125,9.53125 L51.46875,9.53125 Z" id="Stroke-3186" stroke="#464A48" stroke-width="3" stroke-linejoin="round"></path>
        </g>
    </g>
</svg>