<?xml version="1.0" encoding="UTF-8" standalone="no"?>
<svg width="127px" height="127px" viewBox="0 0 127 127" version="1.1" xmlns="http://www.w3.org/2000/svg" xmlns:xlink="http://www.w3.org/1999/xlink">
    <!-- Generator: Sketch 39.1 (31720) - http://www.bohemiancoding.com/sketch -->
    <title>نظام إدارة قواعد البيانات وتكامل البيانات العملاقة</title>
    <desc>Created with Sketch.</desc>
    <defs></defs>
    <g id="Page-1" stroke="none" stroke-width="1" fill="none" fill-rule="evenodd">
        <g id="نظام-إدارة-قواعد-البيانات-وتكامل-البيانات-العملاقة" transform="translate(2.000000, 2.000000)">
            <path d="M111.096774,27.8285849 C111.096774,32.2215258 107.545645,35.7796091 103.16129,35.7796091 C98.7769355,35.7796091 95.2258065,32.2215258 95.2258065,27.8285849 C95.2258065,23.435644 98.7769355,19.8775606 103.16129,19.8775606 C107.545645,19.8775606 111.096774,23.435644 111.096774,27.8285849" id="Fill-2596" fill="#FFFFFF"></path>
            <path d="M11.9032258,95.412291 C11.9032258,91.0193501 15.4543548,87.4612668 19.8387097,87.4612668 C24.2230645,87.4612668 27.7741935,91.0193501 27.7741935,95.412291 C27.7741935,99.8052319 24.2230645,103.363315 19.8387097,103.363315 C15.4543548,103.363315 11.9032258,99.8052319 11.9032258,95.412291" id="Fill-2597" fill="#FFFFFF"></path>
            <polygon id="Fill-2598" fill="#FFFFFF" points="23.8064516 55.6571698 39.6774194 55.6571698 39.6774194 47.7061455 23.8064516 47.7061455"></polygon>
            <path d="M63.483871,5.96326819 C63.483871,2.66359312 60.8254839,0 57.5322581,0 L5.9516129,0 C2.6583871,0 0,2.66359312 0,5.96326819 L0,41.7428773 C0,45.0425524 2.6583871,47.7061455 5.9516129,47.7061455 L57.5322581,47.7061455 C60.8254839,47.7061455 63.483871,45.0425524 63.483871,41.7428773 L63.483871,5.96326819" id="Fill-2599" fill="#FFFFFF"></path>
            <path d="M63.483871,5.96326819 C63.483871,2.66359312 60.8254839,0 57.5322581,0 L5.9516129,0 C2.6583871,0 0,2.66359312 0,5.96326819 L0,41.7428773 C0,45.0425524 2.6583871,47.7061455 5.9516129,47.7061455 L57.5322581,47.7061455 C60.8254839,47.7061455 63.483871,45.0425524 63.483871,41.7428773 L63.483871,5.96326819 L63.483871,5.96326819 Z M39.6774194,47.7061455 L39.6774194,55.6571698 L39.6774194,47.7061455 Z M23.8064516,55.6571698 L23.8064516,47.7061455 L23.8064516,55.6571698 Z" id="Stroke-2600" stroke="#464A48" stroke-width="3"></path>
            <polygon id="Fill-2601" fill="#77C6C6" points="5.9516129 41.7428773 57.5322581 41.7428773 57.5322581 5.96326819 5.9516129 5.96326819"></polygon>
            <path d="M29.7580645,35.7796091 L33.7258065,35.7796091 M21.8225806,35.7796091 L25.7903226,35.7796091 M37.6935484,35.7796091 L41.6612903,35.7796091 M45.6290323,55.6571698 L17.8548387,55.6571698" id="Stroke-2602" stroke="#464A48" stroke-width="2"></path>
            <polygon id="Fill-2603" fill="#FFFFFF" points="83.3225806 123.240876 99.1935484 123.240876 99.1935484 115.289852 83.3225806 115.289852"></polygon>
            <path d="M123,73.5469743 C123,70.2472993 120.341613,67.5837061 117.048387,67.5837061 L65.4677419,67.5837061 C62.1745161,67.5837061 59.516129,70.2472993 59.516129,73.5469743 L59.516129,109.326583 C59.516129,112.626259 62.1745161,115.289852 65.4677419,115.289852 L117.048387,115.289852 C120.341613,115.289852 123,112.626259 123,109.326583 L123,73.5469743" id="Fill-2604" fill="#FFFFFF"></path>
            <path d="M123,73.5469743 C123,70.2472993 120.341613,67.5837061 117.048387,67.5837061 L65.4677419,67.5837061 C62.1745161,67.5837061 59.516129,70.2472993 59.516129,73.5469743 L59.516129,109.326583 C59.516129,112.626259 62.1745161,115.289852 65.4677419,115.289852 L117.048387,115.289852 C120.341613,115.289852 123,112.626259 123,109.326583 L123,73.5469743 L123,73.5469743 Z M99.1935484,115.289852 L99.1935484,123.240876 L99.1935484,115.289852 Z M83.3225806,123.240876 L83.3225806,115.289852 L83.3225806,123.240876 Z" id="Stroke-2605" stroke="#464A48" stroke-width="3"></path>
            <polygon id="Fill-2606" fill="#F4B25A" points="65.4677419 109.326583 117.048387 109.326583 117.048387 73.5469743 65.4677419 73.5469743"></polygon>
            <path d="M89.2741935,103.363315 L93.2419355,103.363315 L89.2741935,103.363315 Z M81.3387097,103.363315 L85.3064516,103.363315 L81.3387097,103.363315 Z M97.2096774,103.363315 L101.177419,103.363315 L97.2096774,103.363315 Z M105.145161,123.240876 L77.3709677,123.240876 L105.145161,123.240876 Z M103.16129,41.7428773 L103.16129,61.620438 L103.16129,41.7428773 Z M69.4354839,27.8285849 L89.2741935,27.8285849 L69.4354839,27.8285849 Z M111.096774,27.8285849 C111.096774,32.2215258 107.545645,35.7796091 103.16129,35.7796091 C98.7769355,35.7796091 95.2258065,32.2215258 95.2258065,27.8285849 C95.2258065,23.435644 98.7769355,19.8775606 103.16129,19.8775606 C107.545645,19.8775606 111.096774,23.435644 111.096774,27.8285849 L111.096774,27.8285849 Z M19.8387097,81.4979986 L19.8387097,61.620438 L19.8387097,81.4979986 Z M53.5645161,95.412291 L33.7258065,95.412291 L53.5645161,95.412291 Z M11.9032258,95.412291 C11.9032258,91.0193501 15.4543548,87.4612668 19.8387097,87.4612668 C24.2230645,87.4612668 27.7741935,91.0193501 27.7741935,95.412291 C27.7741935,99.8052319 24.2230645,103.363315 19.8387097,103.363315 C15.4543548,103.363315 11.9032258,99.8052319 11.9032258,95.412291 L11.9032258,95.412291 Z" id="Stroke-2607" stroke="#464A48" stroke-width="3"></path>
        </g>
    </g>
</svg>