<?xml version="1.0" encoding="UTF-8" standalone="no"?>
<svg width="115px" height="115px" viewBox="0 0 115 115" version="1.1" xmlns="http://www.w3.org/2000/svg" xmlns:xlink="http://www.w3.org/1999/xlink">
    <!-- Generator: Sketch 39.1 (31720) - http://www.bohemiancoding.com/sketch -->
    <title>البحث</title>
    <desc>Created with Sketch.</desc>
    <defs></defs>
    <g id="Page-1" stroke="none" stroke-width="1" fill="none" fill-rule="evenodd">
        <g id="البحث" transform="translate(2.000000, 2.000000)">
            <path d="M82.3548387,41.1774194 C82.3548387,63.9145161 63.9145161,82.3548387 41.1774194,82.3548387 C18.4403226,82.3548387 0,63.9145161 0,41.1774194 C0,18.4403226 18.4403226,0 41.1774194,0 C63.9145161,0 82.3548387,18.4403226 82.3548387,41.1774194" id="Fill-2896" fill="#FFFFFF"></path>
            <path d="M75.1935484,64.4516129 L111,100.258065 C111,106.184032 106.184032,111 100.258065,111 L64.4516129,75.1935484" id="Fill-2897" fill="#77C6C6"></path>
            <path d="M82.3548387,41.1774194 C82.3548387,63.9145161 63.9145161,82.3548387 41.1774194,82.3548387 C18.4403226,82.3548387 0,63.9145161 0,41.1774194 C0,18.4403226 18.4403226,0 41.1774194,0 C63.9145161,0 82.3548387,18.4403226 82.3548387,41.1774194 L82.3548387,41.1774194 Z M75.1935484,64.4516129 L111,100.258065 C111,106.184032 106.184032,111 100.258065,111 L64.4516129,75.1935484 L75.1935484,64.4516129 Z M100.258065,102.048387 L103.83871,102.048387 L100.258065,102.048387 Z" id="Stroke-2898" stroke="#464A48" stroke-width="3" stroke-linejoin="round"></path>
            <path d="M69.8225806,41.1774194 C69.8225806,57.003871 57.003871,69.8225806 41.1774194,69.8225806 C25.3509677,69.8225806 12.5322581,57.003871 12.5322581,41.1774194 C12.5322581,25.3509677 25.3509677,12.5322581 41.1774194,12.5322581 C57.003871,12.5322581 69.8225806,25.3509677 69.8225806,41.1774194" id="Fill-2899" fill="#F4B25A"></path>
            <path d="M50.1290323,41.1774194 C50.1290323,46.1187097 46.1187097,50.1290323 41.1774194,50.1290323 C36.236129,50.1290323 32.2258065,46.1187097 32.2258065,41.1774194 C32.2258065,36.236129 36.236129,32.2258065 41.1774194,32.2258065 C46.1187097,32.2258065 50.1290323,36.236129 50.1290323,41.1774194" id="Fill-2900" fill="#E5842D"></path>
        </g>
    </g>
</svg>