<?xml version="1.0" encoding="UTF-8" standalone="no"?>
<svg width="124px" height="124px" viewBox="0 0 124 124" version="1.1" xmlns="http://www.w3.org/2000/svg" xmlns:xlink="http://www.w3.org/1999/xlink">
    <!-- Generator: Sketch 39.1 (31720) - http://www.bohemiancoding.com/sketch -->
    <title>إختبار تجربة المستخدم</title>
    <desc>Created with Sketch.</desc>
    <defs></defs>
    <g id="Page-1" stroke="none" stroke-width="1" fill="none" fill-rule="evenodd">
        <g id="إختبار-تجربة-المستخدم" transform="translate(2.000000, 2.000000)">
            <path d="M122,63.9047619 L118.126984,63.9047619 L40.6666667,52.2857143 C33.172381,52.2857143 27.1111111,46.2166984 27.1111111,38.7301587 C27.1111111,31.243619 33.172381,25.1746032 40.6666667,25.1746032 L118.126984,13.5555556 L122,13.5555556" id="Fill-492" fill="#E9962D"></path>
            <path d="M15.4920635,122 L15.4920635,98.7619048 C15.4920635,79.3968254 0,63.1262857 0,40.6666667 C0,18.2070476 18.2031746,0 40.6666667,0 C63.1301587,0 81.3333333,18.2070476 81.3333333,40.6666667 L91.015873,65.8412698 L91.015873,69.7142857 L81.3333333,69.7142857 L81.3333333,87.1428571 C81.3333333,93.5585079 76.124127,98.7619048 69.7142857,98.7619048 L58.0952381,98.7619048 L58.0952381,122" id="Fill-493" fill="#FFFFFF"></path>
            <path d="M58.0952381,98.7619048 L52.2857143,98.7619048" id="Stroke-494" stroke="#464A48" stroke-width="2"></path>
            <path d="M91.015873,69.7142857 L81.3333333,69.7142857 L81.3333333,87.1428571 C81.3333333,93.5585079 76.124127,98.7619048 69.7142857,98.7619048 L58.0952381,98.7619048 L58.0952381,122 M15.4920635,122 L15.4920635,98.7619048 C15.4920635,79.3968254 0,63.1262857 0,40.6666667 C0,18.2070476 18.2031746,0 40.6666667,0 C51.7434921,0 61.7939683,4.43266667 69.1333333,11.6209841" id="Stroke-495" stroke="#464A48" stroke-width="3" stroke-linejoin="round"></path>
            <path d="M63.7498413,38.7301587 C63.7498413,35.738254 66.0349206,33.306 68.9396825,33.0174603 C68.2038095,29.2935556 66.7320635,25.8330159 64.6987302,22.7772063 C62.4330159,24.6265714 59.1022222,24.522 56.9914286,22.4092698 C54.8806349,20.2946032 54.7644444,16.9638095 56.6234921,14.6980952 C53.5638095,12.6647619 50.0974603,11.1949524 46.3793651,10.4493968 C46.0888889,13.3619048 43.6488889,15.6469841 40.6666667,15.6469841 C37.6844444,15.6469841 35.2444444,13.3619048 34.9539683,10.4493968 C31.235873,11.1949524 27.7695238,12.6647619 24.7098413,14.6980952 C26.5688889,16.9638095 26.4526984,20.2946032 24.3419048,22.4092698 C22.2311111,24.522 18.9003175,24.6265714 16.6346032,22.7772063 C14.6012698,25.8330159 13.1295238,29.2935556 12.3936508,33.0174603 C15.2984127,33.306 17.5834921,35.738254 17.5834921,38.7301587 C17.5834921,41.7220635 15.2984127,44.1543175 12.3936508,44.4428571 C13.1295238,48.1667619 14.6012698,51.6273016 16.6346032,54.6831111 C18.9003175,52.833746 22.2311111,52.9383175 24.3419048,55.0510476 C26.4526984,57.1657143 26.5688889,60.4965079 24.7098413,62.7622222 C27.7695238,64.7955556 31.235873,66.2653651 34.9539683,67.0109206 C35.2444444,64.0984127 37.6844444,61.8133333 40.6666667,61.8133333 C43.6488889,61.8133333 46.0888889,64.0984127 46.3793651,67.0109206 C50.0974603,66.2653651 53.5638095,64.7955556 56.6234921,62.7622222 C54.7644444,60.4965079 54.8806349,57.1657143 56.9914286,55.0510476 C59.1022222,52.9383175 62.4330159,52.833746 64.6987302,54.6831111 C66.7320635,51.6273016 68.2038095,48.1667619 68.9396825,44.4428571 C66.0349206,44.1543175 63.7498413,41.7220635 63.7498413,38.7301587" id="Fill-496" fill="#84CBCB"></path>
            <path d="M46.4761905,38.7301587 C46.4761905,41.9389524 43.8812698,44.5396825 40.6666667,44.5396825 C37.4520635,44.5396825 34.8571429,41.9389524 34.8571429,38.7301587 C34.8571429,35.5213651 37.4520635,32.9206349 40.6666667,32.9206349 C43.8812698,32.9206349 46.4761905,35.5213651 46.4761905,38.7301587" id="Fill-497" fill="#FFFFFF"></path>
            <path d="M122,63.9047619 L118.126984,63.9047619 L40.6666667,52.2857143 C33.172381,52.2857143 27.1111111,46.2166984 27.1111111,38.7301587 C27.1111111,31.243619 33.172381,25.1746032 40.6666667,25.1746032 L118.126984,13.5555556 L122,13.5555556 M38.7301587,38.7301587 L42.6031746,38.7301587 M94.8888889,38.7301587 L98.7619048,38.7301587 M102.634921,38.7301587 L106.507937,38.7301587 M110.380952,38.7301587 L114.253968,38.7301587" id="Stroke-498" stroke="#464A48" stroke-width="3" stroke-linejoin="round"></path>
        </g>
    </g>
</svg>